<svg width="24" height="25" viewBox="0 0 24 25" fill="none" xmlns="http://www.w3.org/2000/svg">
<path fill-rule="evenodd" clip-rule="evenodd" d="M23.52 12.7727C23.52 11.9218 23.4436 11.1036 23.3018 10.3181H12V14.9599H18.4582C18.18 16.4599 17.3345 17.7308 16.0636 18.5817V21.5927H19.9418C22.2109 19.5036 23.52 16.4272 23.52 12.7727Z" fill="#4285F4"/>
<path fill-rule="evenodd" clip-rule="evenodd" d="M12 24.4998C15.24 24.4998 17.9564 23.4252 19.9418 21.5925L16.0636 18.5816C14.9891 19.3016 13.6145 19.7271 12 19.7271C8.87455 19.7271 6.22909 17.6161 5.28546 14.7798H1.27637V17.8889C3.25091 21.8107 7.30909 24.4998 12 24.4998Z" fill="#34A853"/>
<path fill-rule="evenodd" clip-rule="evenodd" d="M5.28545 14.7802C5.04545 14.0602 4.90909 13.2911 4.90909 12.5002C4.90909 11.7093 5.04545 10.9402 5.28545 10.2202V7.11108H1.27636C0.463636 8.73108 0 10.5638 0 12.5002C0 14.4365 0.463636 16.2693 1.27636 17.8893L5.28545 14.7802Z" fill="#FBBC05"/>
<path fill-rule="evenodd" clip-rule="evenodd" d="M12 5.27273C13.7618 5.27273 15.3436 5.87818 16.5873 7.06727L20.0291 3.62545C17.9509 1.68909 15.2346 0.5 12 0.5C7.3091 0.5 3.25091 3.18909 1.27637 7.11091L5.28546 10.22C6.22909 7.38364 8.87455 5.27273 12 5.27273Z" fill="#EA4335"/>
</svg>
