<svg width="57" height="57" viewBox="0 0 57 57" fill="none" xmlns="http://www.w3.org/2000/svg">
<circle cx="28.5" cy="28.5" r="28.5" fill="white" fill-opacity="0.56"/>
<g clip-path="url(#clip0_126_4391)">
<path d="M25.3946 51.7927C20.0595 51.8307 14.5469 49.2455 10.3903 46.635C8.62886 45.5325 6.93073 44.3286 5.29597 43.036C4.73838 42.5924 4.19346 42.0602 4.21881 41.2872C4.21881 40.8436 4.54829 40.8056 4.9158 40.983C5.41003 41.2238 5.87891 41.6293 6.28443 41.9842C7.79247 43.0106 9.35119 43.9737 10.9353 44.8735C13.8753 46.5209 16.9547 48.3078 20.2242 49.2075C21.5675 49.575 22.8728 49.9298 24.2795 49.8411C25.7241 49.7524 27.1941 49.4356 28.5248 48.8527C29.4372 48.4598 30.6031 47.9909 31.0846 47.0532C31.5408 46.1661 31.5028 44.8482 30.4003 44.5313C29.3358 44.2145 28.0686 44.3539 26.9914 44.4933L22.2645 45.1396C22.2645 45.1396 14.6356 46.5716 22.0491 42.0602C24.6977 40.4508 27.9672 39.475 31.0846 39.6144C32.8081 39.6904 34.4428 40.3621 36.0269 40.9704C37.0154 41.3505 38.0292 41.5406 39.081 41.6673C41.7169 42.0095 44.3401 41.604 46.5958 40.1213C48.2559 39.0315 49.5992 37.422 50.4609 35.6352C50.7017 35.141 50.8918 34.6214 51.0439 34.0892C51.272 33.2654 51.4748 32.4291 51.6268 31.58C51.931 29.8565 52.083 28.1077 52.045 26.3589C52.0197 25.3451 51.9436 24.3313 51.8042 23.3175C49.8653 9.12423 36.9393 -0.912429 22.7461 0.658968C23.4811 0.494225 24.2288 0.354827 24.9891 0.253446C40.437 -1.83752 54.6429 8.98484 56.7465 24.4327C58.8375 39.8805 48.0151 54.0864 32.5673 56.1901C23.5064 57.4193 14.8638 54.1878 8.85696 48.1937C13.2163 51.1718 20.3003 55.1256 27.1308 54.9355H27.1561C27.2575 54.9228 27.3335 54.8341 27.3209 54.7327C27.3209 54.6187 27.2322 54.5427 27.1181 54.5427C21.7703 54.6947 16.1944 52.2236 11.9744 49.7144C10.2129 48.6626 8.69222 47.6234 7.51367 46.749C7.45031 46.6983 7.38695 46.6477 7.32358 46.5716C6.88004 46.2548 3.94001 44.0751 5.13123 43.5936C5.11856 43.5556 5.09321 43.5302 5.08054 43.5049C5.11856 43.5049 5.1439 43.5556 5.18192 43.5682C8.97101 46.5716 17.2842 52.3123 25.3946 52.2869C25.3946 52.2869 25.4073 52.2869 25.42 52.2869C25.5467 52.2743 25.6354 52.1729 25.6354 52.0462C25.6354 51.9068 25.5214 51.7927 25.382 51.8054L25.3946 51.7927Z" fill="#F7CDE4"/>
<path d="M34.0626 23.0007C34.4935 23.1147 35.7607 25.2184 36.0142 25.8393C36.0395 25.9027 35.3045 25.041 35.0004 24.6354C34.8357 24.4073 34.2527 23.685 34.0119 23.4316C33.8852 23.3048 33.7712 22.9246 34.0626 23.0007Z" fill="#C8CCB8"/>
<path d="M32.694 22.6332C33.0996 22.7472 34.2781 24.6988 34.5189 25.2818C34.5442 25.3324 33.8599 24.5341 33.5685 24.1539C33.4164 23.9385 32.8715 23.2668 32.6434 23.0387C32.5293 22.912 32.4152 22.5572 32.694 22.6332Z" fill="#C8CCB8"/>
<path d="M31.6169 22.4938C31.9463 22.5825 32.9221 24.2046 33.1249 24.6861C33.1502 24.7368 32.58 24.0778 32.3392 23.761C32.2125 23.5836 31.7689 23.026 31.5788 22.8359C31.4775 22.7346 31.3887 22.4431 31.6169 22.5064V22.4938Z" fill="#C8CCB8"/>
<path d="M46.9633 22.8993C47.3308 22.9627 48.5093 24.5974 48.7755 25.0917C48.8008 25.1423 48.1292 24.4834 47.8504 24.1666C47.6983 23.9891 47.166 23.4442 46.9506 23.2541C46.8366 23.1528 46.7098 22.8486 46.9506 22.8993H46.9633Z" fill="#C8CCB8"/>
<path d="M46.1142 23.0133C46.4564 23.064 47.5969 24.5721 47.8504 25.0283C47.8757 25.0663 47.2421 24.4707 46.976 24.1919C46.8239 24.0271 46.3297 23.5329 46.1142 23.3555C46.0002 23.2668 45.8861 22.988 46.1142 23.026V23.0133Z" fill="#C8CCB8"/>
<path d="M45.2525 23.2035C45.5313 23.2541 46.4437 24.5087 46.6465 24.8889C46.6591 24.9269 46.1522 24.42 45.9368 24.1792C45.8228 24.0398 45.4172 23.6216 45.2398 23.4696C45.1511 23.3935 45.0624 23.1528 45.2398 23.1908L45.2525 23.2035Z" fill="#C8CCB8"/>
<path d="M41.8056 20.3014C41.8943 20.3774 41.9703 20.4662 42.0591 20.5422C41.983 20.4028 41.9323 20.2507 41.945 20.124C42.0844 20.4535 42.3632 20.7196 42.68 20.9224C42.756 20.9857 42.8321 21.0491 42.9081 21.1125C43.3136 21.3279 43.7445 21.4926 44.2261 21.6194C44.8217 21.7081 45.506 21.67 45.9368 21.2645C46.3677 20.859 46.1776 20.3268 46.3931 19.8579C46.4691 19.6931 46.7099 19.7058 46.9 19.7692C46.938 19.7818 46.9633 19.8072 47.0013 19.8325C46.7352 19.8705 46.6085 20.2381 46.5578 20.5295C46.4691 20.9731 46.4311 21.5053 46.1016 21.8475C45.8101 22.1516 45.3539 22.1896 44.9611 22.1643C44.9357 22.1643 44.923 22.1643 44.8977 22.1643C44.5555 22.1643 44.2134 22.1136 43.9473 22.0629C43.415 21.9488 42.9208 21.7081 42.4646 21.4039C42.4266 21.3786 42.4012 21.3406 42.3632 21.3152C42.0337 21.0111 41.8436 20.6816 41.7676 20.2761C41.7803 20.2761 41.7929 20.2887 41.8056 20.3014Z" fill="#C8CCB8"/>
<path d="M33.3277 21.3532C33.0869 21.0871 32.8841 20.7956 32.6687 20.4915C32.4659 20.2 32.1111 19.7058 31.7563 19.7438C31.845 19.6551 31.9337 19.5918 32.0604 19.6044C32.3899 19.6298 32.7954 19.9212 32.9729 20.1493C33.2897 20.5675 33.4671 20.935 33.9486 21.1758C34.6203 21.3913 35.3173 21.48 35.9889 21.2899C36.3438 21.2265 36.6986 21.0744 37.0027 20.8337C37.0407 20.821 37.0788 20.7956 37.1168 20.7703C37.2182 20.6816 37.2942 20.5802 37.3702 20.4788C37.5603 20.2507 37.7124 19.9973 37.8138 19.7058C37.8138 19.8199 37.8138 19.9593 37.7884 20.0987C37.8771 19.9466 37.9532 19.7692 38.0419 19.5664C37.9278 20.8337 36.9647 21.6954 35.9002 22.0249C35.1399 22.177 34.2528 21.9869 33.5938 21.5307C33.5051 21.48 33.4291 21.4166 33.353 21.3532H33.3277Z" fill="#C8CCB8"/>
<path d="M35.6087 27.7782C36.9267 28.4372 39.043 27.1826 40.1582 27.0052C40.6778 26.9292 41.2734 26.9925 41.7549 27.17C42.1098 27.2967 42.4266 27.4614 42.7561 27.6262C42.9081 27.7022 43.0729 27.8036 43.2376 27.8923C43.5037 27.9557 43.7699 27.981 44.0613 27.9683C44.074 27.9683 44.0867 27.9683 44.0993 27.9683C43.8966 28.1711 43.6305 28.2978 43.339 28.3612C42.9208 28.2598 42.4899 28.1331 42.0591 28.0824C41.9704 28.0824 41.8943 28.057 41.8056 28.057C41.6155 28.0317 41.4254 28.0063 41.2354 27.9937C40.4877 27.9683 39.74 28.019 38.9923 28.1077C38.5741 28.1584 38.1559 28.2091 37.7251 28.2725C37.2942 28.3358 36.8633 28.4752 36.4325 28.5132C36.0143 28.3485 35.6975 28.0824 35.4947 27.7275C35.5327 27.7275 35.5581 27.7656 35.5961 27.7909L35.6087 27.7782Z" fill="#C8CCB8"/>
<path d="M40.513 27.7402C41.0959 27.7149 41.6535 27.7402 42.2238 27.7655C42.2871 27.7655 42.3505 27.7655 42.4012 27.7782C42.3505 27.7402 42.3125 27.7022 42.2618 27.6642C41.5901 27.4234 40.9692 27.322 40.1835 27.4361C39.7146 27.4994 39.2584 27.6515 38.8022 27.7909C39.3724 27.7529 39.93 27.7529 40.5003 27.7275L40.513 27.7402Z" fill="#C8CCB8"/>
<path d="M39.3344 30.0846C39.1444 29.9959 38.9289 29.8945 38.7388 29.7805C38.7388 29.7678 38.7642 29.7551 38.7895 29.7425C39.2204 29.7932 39.6386 29.8565 40.0694 29.8945C40.627 29.9326 41.324 30.0213 41.8943 29.8819C41.5014 30.2113 40.9439 30.3888 40.3356 30.4648C39.9681 30.3888 39.6386 30.2367 39.3091 30.0846H39.3344Z" fill="#C8CCB8"/>
<path d="M4.24416 39.0061C0.100236 32.8219 0.0115288 24.3566 3.48381 17.7416C6.95609 11.1265 13.5078 6.12085 20.8199 4.39738C25.2299 3.35823 29.8174 3.56099 34.126 5.24644C31.1226 5.0817 28.4107 7.40078 27.2068 10.1507C26.0156 12.9007 26.0283 15.9928 26.155 18.9835C26.2817 21.9742 26.4972 25.0156 25.6734 27.905C24.7483 31.0858 22.5813 33.8357 19.9328 35.838C17.2842 37.8402 12.1265 39.7411 8.933 40.6662C8.7049 29.2356 13.5458 17.6402 21.9857 9.80856C11.6829 15.6253 4.91581 27.2967 4.24416 39.0061Z" fill="#51B2ED"/>
<path d="M27.3969 2.6612C27.1055 2.26835 26.6746 1.96421 26.2184 1.76145C25.7495 1.54602 25.2426 1.45731 24.723 1.40662C24.2161 1.3686 23.6965 1.40662 23.2023 1.45731C22.7081 1.52067 22.2265 1.59671 21.745 1.68541C19.8061 2.05292 17.9432 2.59784 16.093 3.0794C14.2428 3.56095 12.3926 3.99182 10.5171 4.13122C9.57932 4.20725 8.65422 4.20725 7.81783 3.91578C7.39964 3.77639 7.00679 3.53561 6.6773 3.21879C6.34782 2.90198 6.08169 2.49646 5.96764 2.0149C5.9423 2.50913 6.10704 3.01603 6.39851 3.4469C6.68998 3.87777 7.0955 4.2326 7.55171 4.48605C8.00792 4.7395 8.51482 4.90424 9.02173 4.99295C9.52863 5.09433 10.0355 5.13235 10.5424 5.13235C12.5447 5.18304 14.5216 4.80286 16.4098 4.32131C18.3107 3.82708 20.1356 3.20612 21.9731 2.6612C22.8982 2.39508 23.8106 2.11628 24.723 2.02757C25.6354 1.93887 26.5986 2.07826 27.3969 2.6612Z" fill="#51B2ED"/>
</g>
<defs>
<clipPath id="clip0_126_4391">
<rect width="56" height="56.4435" fill="white" transform="translate(1)"/>
</clipPath>
</defs>
</svg>
