<svg width="390" height="279" viewBox="0 0 390 279" fill="none" xmlns="http://www.w3.org/2000/svg">
<g filter="url(#filter0_d_2122_5231)">
<path d="M0 10C0 4.47715 4.47715 0 10 0H380C385.523 0 390 4.47715 390 10V215C390 237.091 372.091 255 350 255H40C17.9086 255 0 237.091 0 215V10Z" fill="url(#paint0_linear_2122_5231)"/>
</g>
<g filter="url(#filter1_d_2122_5231)">
<path d="M53.813 152.496C54.0157 152.395 54.2183 152.376 54.421 152.439C54.6363 152.502 54.7947 152.629 54.896 152.819C55.3393 153.617 55.599 154.086 55.675 154.225C55.7763 154.415 55.7953 154.624 55.732 154.852C55.6687 155.067 55.5357 155.219 55.333 155.308C55.1303 155.397 54.9213 155.403 54.706 155.327C54.5033 155.251 54.3513 155.118 54.25 154.928C53.8193 154.143 53.566 153.68 53.49 153.541C53.3887 153.351 53.3697 153.155 53.433 152.952C53.4963 152.749 53.623 152.597 53.813 152.496ZM57.651 152.553C58.0057 153.186 58.2717 153.668 58.449 153.997C58.5503 154.2 58.563 154.409 58.487 154.624C58.4237 154.827 58.2907 154.979 58.088 155.08C57.8853 155.169 57.6763 155.181 57.461 155.118C57.2457 155.042 57.0873 154.903 56.986 154.7C56.8213 154.383 56.5617 153.908 56.207 153.275C56.1057 153.085 56.0803 152.882 56.131 152.667C56.1943 152.452 56.3273 152.3 56.53 152.211C56.7327 152.11 56.9417 152.091 57.157 152.154C57.3723 152.217 57.537 152.35 57.651 152.553ZM44.332 154.225H52.388C52.6413 154.225 52.8567 154.314 53.034 154.491C53.2113 154.668 53.3 154.877 53.3 155.118C53.3 155.371 53.2113 155.587 53.034 155.764C52.8567 155.941 52.6413 156.03 52.388 156.03H44.332C44.0787 156.03 43.8633 155.941 43.686 155.764C43.5087 155.587 43.42 155.371 43.42 155.118C43.42 154.877 43.5087 154.668 43.686 154.491C43.8633 154.314 44.0787 154.225 44.332 154.225ZM42.128 161.16C41.8873 161.16 41.6783 161.071 41.501 160.894C41.3237 160.717 41.235 160.501 41.235 160.248C41.235 159.995 41.3173 159.786 41.482 159.621C41.6593 159.444 41.8747 159.355 42.128 159.355H56.473C56.7263 159.355 56.9417 159.444 57.119 159.621C57.2963 159.798 57.385 160.007 57.385 160.248C57.385 160.501 57.29 160.717 57.1 160.894C56.9227 161.071 56.7137 161.16 56.473 161.16H51.172C51.0707 161.16 51.02 161.211 51.02 161.312C50.9947 163.351 50.5323 164.979 49.633 166.195C48.7337 167.411 47.3277 168.31 45.415 168.893C45.1617 168.969 44.9147 168.937 44.674 168.798C44.446 168.671 44.2877 168.481 44.199 168.228C44.123 167.987 44.142 167.759 44.256 167.544C44.3827 167.316 44.5727 167.158 44.826 167.069C46.2827 166.575 47.3213 165.891 47.942 165.017C48.5753 164.13 48.9047 162.902 48.93 161.331C48.93 161.217 48.873 161.16 48.759 161.16H42.128ZM75.511 156.448C75.7643 156.499 75.967 156.638 76.119 156.866C76.271 157.081 76.3217 157.316 76.271 157.569C75.5237 161.103 74.124 163.744 72.072 165.492C70.02 167.227 67.056 168.317 63.18 168.76C62.914 168.785 62.6733 168.716 62.458 168.551C62.2427 168.386 62.116 168.171 62.078 167.905C62.04 167.652 62.097 167.424 62.249 167.221C62.4137 167.006 62.6227 166.885 62.876 166.86C66.372 166.455 68.994 165.53 70.742 164.086C72.49 162.629 73.6997 160.349 74.371 157.246C74.4343 156.98 74.5737 156.771 74.789 156.619C75.0043 156.454 75.245 156.397 75.511 156.448ZM72.604 152.686C72.8067 152.585 73.0093 152.566 73.212 152.629C73.4273 152.692 73.5857 152.819 73.687 153.009C74.1303 153.807 74.39 154.276 74.466 154.415C74.5673 154.605 74.5863 154.814 74.523 155.042C74.4597 155.257 74.3267 155.409 74.124 155.498C73.9213 155.587 73.7123 155.593 73.497 155.517C73.2943 155.441 73.1423 155.308 73.041 155.118C72.6103 154.333 72.357 153.87 72.281 153.731C72.1797 153.541 72.1607 153.345 72.224 153.142C72.2873 152.939 72.414 152.787 72.604 152.686ZM75.321 152.401C75.5237 152.3 75.7327 152.281 75.948 152.344C76.1633 152.407 76.328 152.54 76.442 152.743C76.9107 153.592 77.1767 154.073 77.24 154.187C77.3413 154.39 77.354 154.599 77.278 154.814C77.2147 155.017 77.0817 155.169 76.879 155.27C76.6763 155.359 76.4673 155.371 76.252 155.308C76.0367 155.232 75.8783 155.093 75.777 154.89C75.6123 154.573 75.3527 154.098 74.998 153.465C74.8967 153.275 74.8713 153.072 74.922 152.857C74.9853 152.642 75.1183 152.49 75.321 152.401ZM62.097 160.419C61.8437 160.368 61.641 160.242 61.489 160.039C61.337 159.824 61.2863 159.589 61.337 159.336C61.3877 159.083 61.5207 158.88 61.736 158.728C61.964 158.576 62.2047 158.525 62.458 158.576C64.2567 158.905 65.7133 159.184 66.828 159.412C67.0813 159.463 67.2777 159.596 67.417 159.811C67.5563 160.026 67.6007 160.261 67.55 160.514C67.4993 160.767 67.3663 160.97 67.151 161.122C66.9357 161.261 66.7013 161.306 66.448 161.255C65.346 161.027 63.8957 160.748 62.097 160.419ZM62.933 155.764C62.6797 155.713 62.477 155.587 62.325 155.384C62.1857 155.169 62.1413 154.934 62.192 154.681C62.2427 154.428 62.3757 154.225 62.591 154.073C62.8063 153.908 63.0407 153.851 63.294 153.902C64.244 154.067 65.7767 154.352 67.892 154.757C68.1453 154.808 68.348 154.941 68.5 155.156C68.652 155.371 68.7027 155.606 68.652 155.859C68.6013 156.112 68.462 156.315 68.234 156.467C68.006 156.606 67.7653 156.651 67.512 156.6C65.878 156.283 64.3517 156.005 62.933 155.764ZM81.857 161.673C81.6797 161.863 81.4643 161.964 81.211 161.977C80.9577 161.977 80.736 161.888 80.546 161.711C80.356 161.546 80.2547 161.337 80.242 161.084C80.2293 160.831 80.3117 160.609 80.489 160.419C82.1483 158.57 83.2123 156.397 83.681 153.902C83.7317 153.636 83.8583 153.421 84.061 153.256C84.2637 153.091 84.498 153.015 84.764 153.028C85.0173 153.053 85.2263 153.167 85.391 153.37C85.5683 153.56 85.638 153.782 85.6 154.035C85.5873 154.098 85.562 154.2 85.524 154.339C85.4987 154.478 85.4797 154.586 85.467 154.662C85.4417 154.751 85.486 154.795 85.6 154.795H93.181C93.4723 154.795 93.7257 154.903 93.941 155.118C94.1563 155.321 94.264 155.568 94.264 155.859C94.2133 159.938 93.257 162.997 91.395 165.036C89.533 167.063 86.5817 168.304 82.541 168.76C82.2877 168.785 82.0533 168.722 81.838 168.57C81.6353 168.418 81.515 168.215 81.477 167.962C81.439 167.721 81.496 167.5 81.648 167.297C81.8 167.094 81.9963 166.98 82.237 166.955C85.9863 166.486 88.6147 165.308 90.122 163.421C90.198 163.345 90.179 163.282 90.065 163.231C88.3043 162.344 86.7147 161.578 85.296 160.932C85.0553 160.818 84.8907 160.641 84.802 160.4C84.7133 160.147 84.7323 159.9 84.859 159.659C84.9857 159.418 85.182 159.254 85.448 159.165C85.7267 159.076 85.9927 159.089 86.246 159.203C87.7913 159.9 89.3937 160.666 91.053 161.502C91.1417 161.553 91.2113 161.527 91.262 161.426C91.7813 160.109 92.079 158.557 92.155 156.771C92.155 156.657 92.098 156.6 91.984 156.6H85.277C85.2137 156.6 85.163 156.594 85.125 156.581C85.0363 156.568 84.9667 156.606 84.916 156.695C84.2573 158.532 83.2377 160.191 81.857 161.673ZM107.773 168.589C107.482 168.602 107.228 168.507 107.013 168.304C106.81 168.101 106.709 167.848 106.709 167.544V154.89C106.709 154.611 106.81 154.371 107.013 154.168C107.228 153.953 107.475 153.845 107.754 153.845C108.033 153.845 108.273 153.953 108.476 154.168C108.691 154.371 108.799 154.611 108.799 154.89V166.385C108.799 166.499 108.85 166.543 108.951 166.518C111.434 165.948 112.928 164.042 113.435 160.799C113.473 160.546 113.593 160.343 113.796 160.191C114.011 160.026 114.246 159.963 114.499 160.001C114.765 160.039 114.98 160.159 115.145 160.362C115.31 160.565 115.373 160.799 115.335 161.065C114.98 163.383 114.151 165.188 112.846 166.48C111.554 167.759 109.863 168.462 107.773 168.589ZM100.192 168.285C99.9387 168.424 99.6727 168.456 99.394 168.38C99.1153 168.317 98.9 168.158 98.748 167.905C98.6087 167.677 98.577 167.436 98.653 167.183C98.729 166.917 98.881 166.714 99.109 166.575C99.831 166.132 100.369 165.6 100.724 164.979C101.079 164.346 101.326 163.484 101.465 162.395C101.604 161.293 101.674 159.71 101.674 157.645V154.89C101.674 154.611 101.775 154.371 101.978 154.168C102.181 153.953 102.428 153.845 102.719 153.845C103.01 153.845 103.257 153.953 103.46 154.168C103.663 154.371 103.764 154.611 103.764 154.89V157.645C103.764 159.938 103.65 161.762 103.422 163.117C103.194 164.472 102.827 165.536 102.32 166.309C101.826 167.082 101.117 167.74 100.192 168.285ZM120.294 163.972C120.408 163.972 120.465 163.915 120.465 163.801V163.231C120.465 163.117 120.408 163.06 120.294 163.06H117.938C117.723 163.06 117.533 162.984 117.368 162.832C117.216 162.667 117.14 162.477 117.14 162.262C117.14 162.047 117.216 161.857 117.368 161.692C117.533 161.527 117.723 161.445 117.938 161.445H120.294C120.408 161.445 120.465 161.388 120.465 161.274V160.951C120.465 160.837 120.408 160.78 120.294 160.78H118.945H118.261C117.97 160.78 117.716 160.672 117.501 160.457C117.286 160.242 117.178 159.988 117.178 159.697V157.398C117.178 157.107 117.286 156.853 117.501 156.638C117.716 156.423 117.97 156.315 118.261 156.315H118.394C118.508 156.315 118.565 156.258 118.565 156.144V155.574C118.565 155.473 118.508 155.422 118.394 155.422H117.691C117.463 155.422 117.267 155.34 117.102 155.175C116.937 155.01 116.855 154.814 116.855 154.586C116.855 154.358 116.937 154.162 117.102 153.997C117.267 153.832 117.463 153.75 117.691 153.75H118.394C118.508 153.75 118.565 153.693 118.565 153.579V153.351C118.565 153.098 118.654 152.882 118.831 152.705C119.021 152.515 119.243 152.42 119.496 152.42C119.749 152.42 119.965 152.515 120.142 152.705C120.319 152.882 120.408 153.098 120.408 153.351V153.579C120.408 153.693 120.465 153.75 120.579 153.75H122.194C122.308 153.75 122.365 153.693 122.365 153.579V153.351C122.365 153.098 122.454 152.882 122.631 152.705C122.821 152.515 123.043 152.42 123.296 152.42C123.549 152.42 123.765 152.515 123.942 152.705C124.119 152.882 124.208 153.098 124.208 153.351V153.579C124.208 153.693 124.265 153.75 124.379 153.75H125.139C125.367 153.75 125.563 153.832 125.728 153.997C125.893 154.162 125.975 154.358 125.975 154.586C125.975 154.814 125.893 155.01 125.728 155.175C125.563 155.34 125.367 155.422 125.139 155.422H124.379C124.265 155.422 124.208 155.473 124.208 155.574V156.144C124.208 156.258 124.265 156.315 124.379 156.315H124.512C124.803 156.315 125.057 156.423 125.272 156.638C125.487 156.853 125.595 157.107 125.595 157.398V157.512C125.595 157.537 125.601 157.55 125.614 157.55C125.639 157.55 125.658 157.544 125.671 157.531C126.355 156.188 126.919 154.706 127.362 153.085C127.425 152.832 127.565 152.635 127.78 152.496C128.008 152.357 128.255 152.306 128.521 152.344C128.774 152.382 128.971 152.509 129.11 152.724C129.249 152.939 129.287 153.167 129.224 153.408C129.211 153.484 129.078 153.927 128.825 154.738C128.8 154.839 128.838 154.89 128.939 154.89H130.383C130.472 154.89 130.541 154.833 130.592 154.719C130.769 154.288 130.953 153.744 131.143 153.085C131.219 152.832 131.365 152.635 131.58 152.496C131.795 152.344 132.03 152.287 132.283 152.325C132.524 152.35 132.707 152.464 132.834 152.667C132.973 152.87 133.011 153.085 132.948 153.313C132.771 153.896 132.612 154.371 132.473 154.738C132.448 154.839 132.486 154.89 132.587 154.89H133.385C133.626 154.89 133.828 154.972 133.993 155.137C134.158 155.302 134.24 155.504 134.24 155.745C134.24 155.986 134.158 156.188 133.993 156.353C133.828 156.518 133.626 156.6 133.385 156.6H132.264C132.15 156.6 132.093 156.657 132.093 156.771V158.804C132.093 158.918 132.15 158.975 132.264 158.975H133.195C133.41 158.975 133.594 159.057 133.746 159.222C133.911 159.374 133.993 159.558 133.993 159.773C133.993 159.988 133.911 160.178 133.746 160.343C133.594 160.508 133.41 160.59 133.195 160.59H132.264C132.15 160.59 132.093 160.647 132.093 160.761V162.851C132.093 162.965 132.15 163.022 132.264 163.022H133.195C133.41 163.022 133.594 163.104 133.746 163.269C133.911 163.421 133.993 163.605 133.993 163.82C133.993 164.035 133.911 164.225 133.746 164.39C133.594 164.542 133.41 164.618 133.195 164.618H132.264C132.15 164.618 132.093 164.675 132.093 164.789V166.936C132.093 167.05 132.15 167.107 132.264 167.107H133.594C133.822 167.107 134.018 167.189 134.183 167.354C134.348 167.506 134.43 167.696 134.43 167.924C134.43 168.152 134.348 168.348 134.183 168.513C134.018 168.678 133.822 168.76 133.594 168.76H128.445C128.356 168.76 128.312 168.804 128.312 168.893C128.312 169.134 128.223 169.343 128.046 169.52C127.869 169.71 127.653 169.805 127.4 169.805H127.343C127.077 169.805 126.849 169.71 126.659 169.52C126.482 169.343 126.393 169.121 126.393 168.855V159.849C126.393 159.735 126.349 159.659 126.26 159.621L125.804 159.45L125.728 159.412C125.639 159.349 125.595 159.368 125.595 159.469V159.697C125.595 159.988 125.487 160.242 125.272 160.457C125.057 160.672 124.803 160.78 124.512 160.78H122.631C122.517 160.78 122.46 160.837 122.46 160.951V161.274C122.46 161.388 122.517 161.445 122.631 161.445H124.835C125.05 161.445 125.24 161.527 125.405 161.692C125.57 161.857 125.652 162.047 125.652 162.262C125.652 162.477 125.57 162.667 125.405 162.832C125.24 162.984 125.05 163.06 124.835 163.06H122.631C122.517 163.06 122.46 163.117 122.46 163.231V163.801C122.46 163.915 122.517 163.972 122.631 163.972H125.044C125.272 163.972 125.468 164.054 125.633 164.219C125.798 164.371 125.88 164.561 125.88 164.789C125.88 165.017 125.798 165.213 125.633 165.378C125.468 165.543 125.272 165.625 125.044 165.625H123.011C122.91 165.625 122.891 165.676 122.954 165.777C123.448 166.474 124.145 167.063 125.044 167.544C125.259 167.658 125.399 167.829 125.462 168.057C125.538 168.285 125.519 168.507 125.405 168.722C125.278 168.95 125.095 169.102 124.854 169.178C124.613 169.254 124.385 169.229 124.17 169.102C123.195 168.532 122.365 167.766 121.681 166.803C121.668 166.778 121.643 166.765 121.605 166.765C121.567 166.765 121.535 166.778 121.51 166.803C120.788 167.88 119.775 168.728 118.47 169.349C118.229 169.463 117.982 169.469 117.729 169.368C117.476 169.279 117.286 169.115 117.159 168.874C117.045 168.659 117.032 168.437 117.121 168.209C117.21 167.981 117.368 167.816 117.596 167.715C118.812 167.196 119.629 166.55 120.047 165.777C120.072 165.752 120.072 165.72 120.047 165.682C120.034 165.644 120.009 165.625 119.971 165.625H117.691C117.463 165.625 117.267 165.543 117.102 165.378C116.937 165.213 116.855 165.017 116.855 164.789C116.855 164.561 116.937 164.371 117.102 164.219C117.267 164.054 117.463 163.972 117.691 163.972H120.294ZM128.312 156.771V158.804C128.312 158.918 128.363 158.975 128.464 158.975H130.136C130.25 158.975 130.307 158.918 130.307 158.804V156.771C130.307 156.657 130.25 156.6 130.136 156.6H128.464C128.363 156.6 128.312 156.657 128.312 156.771ZM128.312 160.761V162.851C128.312 162.965 128.363 163.022 128.464 163.022H130.136C130.25 163.022 130.307 162.965 130.307 162.851V160.761C130.307 160.647 130.25 160.59 130.136 160.59H128.464C128.363 160.59 128.312 160.647 128.312 160.761ZM128.312 164.789V166.936C128.312 167.05 128.363 167.107 128.464 167.107H130.136C130.25 167.107 130.307 167.05 130.307 166.936V164.789C130.307 164.675 130.25 164.618 130.136 164.618H128.464C128.363 164.618 128.312 164.675 128.312 164.789ZM122.422 157.911V159.241C122.422 159.355 122.473 159.412 122.574 159.412H123.828C123.929 159.412 123.98 159.355 123.98 159.241V157.911C123.98 157.797 123.929 157.74 123.828 157.74H122.574C122.473 157.74 122.422 157.797 122.422 157.911ZM120.408 155.574V156.144C120.408 156.258 120.465 156.315 120.579 156.315H122.194C122.308 156.315 122.365 156.258 122.365 156.144V155.574C122.365 155.473 122.308 155.422 122.194 155.422H120.579C120.465 155.422 120.408 155.473 120.408 155.574ZM120.351 159.412C120.465 159.412 120.522 159.355 120.522 159.241V157.911C120.522 157.797 120.465 157.74 120.351 157.74H119.116C119.002 157.74 118.945 157.797 118.945 157.911V159.241C118.945 159.355 119.002 159.412 119.116 159.412H120.351ZM148.148 157.968C148.047 157.968 147.996 158.025 147.996 158.139V159.222C147.996 159.311 148.047 159.355 148.148 159.355H151.701C151.992 159.355 152.246 159.463 152.461 159.678C152.676 159.893 152.784 160.147 152.784 160.438V167.335C152.784 168.285 152.67 168.88 152.442 169.121C152.214 169.362 151.663 169.482 150.789 169.482C150.422 169.482 149.833 169.463 149.022 169.425C148.781 169.412 148.572 169.317 148.395 169.14C148.23 168.975 148.142 168.773 148.129 168.532C148.116 168.304 148.192 168.108 148.357 167.943C148.534 167.778 148.737 167.702 148.965 167.715C149.573 167.753 149.928 167.772 150.029 167.772C150.396 167.772 150.612 167.734 150.675 167.658C150.751 167.582 150.789 167.348 150.789 166.955V165.986C150.789 165.961 150.77 165.942 150.732 165.929C150.707 165.916 150.688 165.916 150.675 165.929L150.637 165.967C150.422 166.17 150.168 166.265 149.877 166.252C149.598 166.239 149.351 166.125 149.136 165.91C148.49 165.239 147.762 164.612 146.951 164.029C146.926 164.004 146.888 163.997 146.837 164.01C146.799 164.01 146.774 164.029 146.761 164.067C146.254 164.89 145.596 165.612 144.785 166.233C144.532 166.423 144.253 166.493 143.949 166.442C143.658 166.391 143.417 166.246 143.227 166.005L143.056 165.777C143.031 165.752 143.005 165.745 142.98 165.758C142.955 165.771 142.942 165.79 142.942 165.815V168.551C142.942 168.817 142.847 169.045 142.657 169.235C142.467 169.425 142.239 169.52 141.973 169.52C141.707 169.52 141.479 169.425 141.289 169.235C141.099 169.045 141.004 168.817 141.004 168.551V160.438C141.004 160.147 141.112 159.893 141.327 159.678C141.542 159.463 141.796 159.355 142.087 159.355H145.868C145.982 159.355 146.039 159.298 146.039 159.184V158.139C146.039 158.025 145.982 157.968 145.868 157.968H141.593C141.365 157.968 141.169 157.892 141.004 157.74C140.852 157.575 140.776 157.379 140.776 157.151C140.776 156.923 140.852 156.727 141.004 156.562C141.169 156.397 141.365 156.315 141.593 156.315H152.328C152.556 156.315 152.752 156.397 152.917 156.562C153.082 156.727 153.164 156.923 153.164 157.151C153.164 157.379 153.082 157.575 152.917 157.74C152.752 157.892 152.556 157.968 152.328 157.968H148.148ZM143.094 165.112C143.905 164.593 144.532 164.016 144.975 163.383C145.418 162.75 145.722 161.99 145.887 161.103C145.912 160.989 145.868 160.932 145.754 160.932H143.113C142.999 160.932 142.942 160.983 142.942 161.084V165.055C142.942 165.156 142.993 165.175 143.094 165.112ZM148.015 160.932C147.914 160.932 147.85 160.983 147.825 161.084C147.762 161.489 147.679 161.857 147.578 162.186C147.553 162.3 147.578 162.382 147.654 162.433C148.743 163.155 149.75 163.997 150.675 164.96C150.688 164.985 150.707 164.992 150.732 164.979C150.77 164.966 150.789 164.947 150.789 164.922V161.084C150.789 160.983 150.732 160.932 150.618 160.932H148.015ZM136.71 164.751C136.482 164.852 136.254 164.852 136.026 164.751C135.811 164.65 135.665 164.479 135.589 164.238C135.513 163.997 135.526 163.757 135.627 163.516C135.741 163.275 135.918 163.104 136.159 163.003C136.704 162.762 137.286 162.458 137.907 162.091C138.008 162.028 138.059 161.939 138.059 161.825C138.097 161.128 138.116 160.324 138.116 159.412C138.116 159.361 138.084 159.349 138.021 159.374C137.856 159.463 137.685 159.488 137.508 159.45C137.331 159.399 137.198 159.292 137.109 159.127C136.716 158.392 136.305 157.689 135.874 157.018C135.735 156.803 135.69 156.568 135.741 156.315C135.792 156.049 135.925 155.853 136.14 155.726C136.355 155.587 136.59 155.549 136.843 155.612C137.109 155.663 137.305 155.796 137.432 156.011C137.495 156.1 137.692 156.429 138.021 156.999C138.034 157.012 138.053 157.018 138.078 157.018C138.103 157.018 138.116 157.005 138.116 156.98V154.738C138.116 154.447 138.217 154.193 138.42 153.978C138.635 153.763 138.889 153.655 139.18 153.655H144.728C144.842 153.655 144.899 153.598 144.899 153.484V153.161C144.899 152.87 144.994 152.629 145.184 152.439C145.387 152.236 145.634 152.135 145.925 152.135C146.204 152.135 146.438 152.236 146.628 152.439C146.831 152.629 146.932 152.87 146.932 153.161V153.484C146.932 153.598 146.989 153.655 147.103 153.655H152.499C152.74 153.655 152.942 153.737 153.107 153.902C153.272 154.067 153.354 154.269 153.354 154.51C153.354 154.751 153.272 154.953 153.107 155.118C152.942 155.283 152.74 155.365 152.499 155.365H140.225C140.111 155.365 140.054 155.422 140.054 155.536V160.552C140.054 162.566 139.902 164.194 139.598 165.435C139.294 166.676 138.794 167.778 138.097 168.741C137.932 168.969 137.711 169.089 137.432 169.102C137.153 169.115 136.913 169.026 136.71 168.836C136.507 168.633 136.393 168.386 136.368 168.095C136.343 167.816 136.419 167.557 136.596 167.316C137.191 166.493 137.597 165.498 137.812 164.333C137.825 164.308 137.818 164.282 137.793 164.257C137.768 164.232 137.742 164.225 137.717 164.238C137.502 164.352 137.166 164.523 136.71 164.751ZM155.729 164.238C155.488 164.238 155.279 164.156 155.102 163.991C154.937 163.826 154.855 163.617 154.855 163.364C154.855 163.111 154.937 162.902 155.102 162.737C155.279 162.572 155.488 162.49 155.729 162.49H162.626C162.727 162.49 162.778 162.439 162.778 162.338V160.096C162.778 159.982 162.727 159.925 162.626 159.925H156.66C156.419 159.925 156.217 159.843 156.052 159.678C155.887 159.513 155.805 159.311 155.805 159.07C155.805 158.829 155.887 158.627 156.052 158.462C156.217 158.297 156.419 158.215 156.66 158.215H162.626C162.727 158.215 162.778 158.158 162.778 158.044V155.992C162.778 155.891 162.727 155.84 162.626 155.84C160.979 155.967 159.257 156.043 157.458 156.068C157.205 156.068 156.983 155.986 156.793 155.821C156.616 155.644 156.521 155.435 156.508 155.194C156.495 154.953 156.571 154.751 156.736 154.586C156.913 154.409 157.122 154.32 157.363 154.32C161.91 154.257 165.97 153.82 169.542 153.009C169.783 152.958 170.004 152.996 170.207 153.123C170.422 153.25 170.562 153.433 170.625 153.674C170.688 153.927 170.65 154.162 170.511 154.377C170.384 154.592 170.201 154.725 169.96 154.776C168.44 155.131 166.787 155.409 165.001 155.612C164.9 155.637 164.855 155.694 164.868 155.783V155.935V158.044C164.868 158.158 164.925 158.215 165.039 158.215H170.34C170.581 158.215 170.783 158.297 170.948 158.462C171.113 158.627 171.195 158.829 171.195 159.07C171.195 159.311 171.113 159.513 170.948 159.678C170.783 159.843 170.581 159.925 170.34 159.925H165.039C164.925 159.925 164.868 159.982 164.868 160.096V162.338C164.868 162.439 164.925 162.49 165.039 162.49H171.271C171.512 162.49 171.714 162.572 171.879 162.737C172.056 162.902 172.145 163.111 172.145 163.364C172.145 163.617 172.056 163.826 171.879 163.991C171.714 164.156 171.512 164.238 171.271 164.238H165.039C164.925 164.238 164.868 164.295 164.868 164.409V166.765C164.868 168.006 164.729 168.773 164.45 169.064C164.171 169.368 163.462 169.52 162.322 169.52C161.689 169.52 160.865 169.501 159.852 169.463C159.599 169.45 159.383 169.355 159.206 169.178C159.041 169.001 158.953 168.792 158.94 168.551C158.927 168.31 159.003 168.108 159.168 167.943C159.333 167.778 159.535 167.702 159.776 167.715C160.65 167.753 161.334 167.772 161.828 167.772C162.271 167.772 162.537 167.721 162.626 167.62C162.727 167.519 162.778 167.234 162.778 166.765V164.409C162.778 164.295 162.727 164.238 162.626 164.238H155.729ZM175.318 166.29C175.153 166.442 174.951 166.518 174.71 166.518C174.469 166.518 174.267 166.442 174.102 166.29C173.937 166.125 173.855 165.923 173.855 165.682V156.201C173.855 155.91 173.963 155.656 174.178 155.441C174.393 155.226 174.647 155.118 174.938 155.118H176.116C176.217 155.118 176.268 155.067 176.268 154.966V153.56C176.268 153.294 176.357 153.072 176.534 152.895C176.724 152.705 176.952 152.61 177.218 152.61C177.484 152.61 177.712 152.705 177.902 152.895C178.092 153.072 178.187 153.294 178.187 153.56V154.966C178.187 155.067 178.238 155.118 178.339 155.118H179.479C179.77 155.118 180.017 155.226 180.22 155.441C180.435 155.656 180.543 155.91 180.543 156.201V161.046C180.543 161.122 180.6 161.147 180.714 161.122C180.815 161.084 180.91 161.065 180.999 161.065H181.113C181.214 161.065 181.265 161.014 181.265 160.913V154.111C181.265 153.82 181.373 153.566 181.588 153.351C181.803 153.136 182.057 153.028 182.348 153.028H189.986C190.214 153.028 190.404 153.11 190.556 153.275C190.721 153.44 190.803 153.636 190.803 153.864C190.803 154.092 190.721 154.288 190.556 154.453C190.404 154.618 190.214 154.7 189.986 154.7H183.412C183.311 154.7 183.26 154.751 183.26 154.852V155.631C183.26 155.732 183.311 155.783 183.412 155.783H189.606C189.809 155.783 189.98 155.859 190.119 156.011C190.258 156.15 190.328 156.321 190.328 156.524C190.328 156.727 190.258 156.904 190.119 157.056C189.98 157.195 189.809 157.265 189.606 157.265H183.412C183.311 157.265 183.26 157.316 183.26 157.417V158.234C183.26 158.348 183.311 158.405 183.412 158.405H189.606C189.809 158.405 189.98 158.481 190.119 158.633C190.258 158.772 190.328 158.943 190.328 159.146C190.328 159.349 190.258 159.52 190.119 159.659C189.98 159.798 189.809 159.868 189.606 159.868H183.412C183.311 159.868 183.26 159.925 183.26 160.039V160.894C183.26 161.008 183.311 161.065 183.412 161.065H190.556C190.784 161.065 190.974 161.147 191.126 161.312C191.291 161.477 191.373 161.673 191.373 161.901C191.373 162.129 191.291 162.325 191.126 162.49C190.974 162.642 190.784 162.718 190.556 162.718H186.015C185.977 162.718 185.945 162.737 185.92 162.775C185.895 162.813 185.895 162.845 185.92 162.87C186.351 163.693 186.952 164.504 187.725 165.302C187.801 165.378 187.871 165.378 187.934 165.302C188.377 164.783 188.77 164.251 189.112 163.706C189.251 163.491 189.441 163.351 189.682 163.288C189.935 163.212 190.17 163.237 190.385 163.364C190.6 163.491 190.74 163.681 190.803 163.934C190.866 164.175 190.828 164.403 190.689 164.618C190.258 165.302 189.802 165.923 189.321 166.48C189.258 166.543 189.27 166.613 189.359 166.689C189.726 166.955 190.176 167.227 190.708 167.506C190.936 167.633 191.088 167.816 191.164 168.057C191.253 168.298 191.24 168.532 191.126 168.76C190.999 169.001 190.803 169.165 190.537 169.254C190.284 169.343 190.037 169.324 189.796 169.197C188.618 168.576 187.592 167.829 186.718 166.955C186.693 166.93 186.667 166.923 186.642 166.936C186.629 166.949 186.623 166.968 186.623 166.993L186.642 167.126C186.693 167.43 186.629 167.709 186.452 167.962C186.275 168.215 186.04 168.38 185.749 168.456C183.963 168.899 182.228 169.222 180.543 169.425C180.315 169.45 180.106 169.387 179.916 169.235C179.739 169.096 179.637 168.912 179.612 168.684C179.587 168.456 179.637 168.253 179.764 168.076C179.903 167.899 180.087 167.797 180.315 167.772C180.404 167.759 180.53 167.74 180.695 167.715C180.872 167.69 181.005 167.671 181.094 167.658C181.208 167.633 181.265 167.576 181.265 167.487V162.87C181.265 162.769 181.214 162.718 181.113 162.718H180.999C180.872 162.718 180.777 162.705 180.714 162.68C180.6 162.655 180.543 162.68 180.543 162.756V164.808C180.543 165.251 180.48 165.587 180.353 165.815C180.226 166.03 180.011 166.176 179.707 166.252C179.403 166.328 179.124 166.271 178.871 166.081C178.618 165.891 178.447 165.631 178.358 165.302L178.225 164.808C178.225 164.795 178.219 164.789 178.206 164.789C178.193 164.789 178.187 164.795 178.187 164.808V168.76C178.187 169.026 178.092 169.248 177.902 169.425C177.712 169.615 177.484 169.71 177.218 169.71C176.952 169.71 176.724 169.615 176.534 169.425C176.357 169.248 176.268 169.026 176.268 168.76V157.056C176.268 156.942 176.217 156.885 176.116 156.885H175.736C175.622 156.885 175.565 156.942 175.565 157.056V165.682C175.565 165.923 175.483 166.125 175.318 166.29ZM183.26 162.889V167.145C183.26 167.259 183.311 167.303 183.412 167.278C184.362 167.101 185.306 166.892 186.243 166.651C186.332 166.626 186.338 166.575 186.262 166.499C185.249 165.384 184.457 164.175 183.887 162.87C183.849 162.769 183.779 162.718 183.678 162.718H183.412C183.311 162.718 183.26 162.775 183.26 162.889ZM178.187 157.056V164.314C178.187 164.428 178.238 164.485 178.339 164.485H178.415C178.656 164.485 178.795 164.441 178.833 164.352C178.871 164.251 178.89 163.915 178.89 163.345V157.056C178.89 156.942 178.839 156.885 178.738 156.885H178.339C178.238 156.885 178.187 156.942 178.187 157.056Z" fill="white"/>
</g>
<path d="M25.5356 179.856C26.4743 179.515 27.573 179.227 28.8316 178.992C30.1116 178.736 31.4023 178.608 32.7036 178.608C34.1543 178.608 35.381 178.779 36.3836 179.12C37.4076 179.44 38.2396 179.888 38.8796 180.464C39.5196 181.019 39.9783 181.669 40.2556 182.416C40.5543 183.163 40.7036 183.952 40.7036 184.784C40.7036 185.808 40.5116 186.715 40.1276 187.504C39.7436 188.272 39.2423 188.944 38.6236 189.52C38.0263 190.075 37.333 190.544 36.5436 190.928C35.7543 191.291 34.965 191.568 34.1756 191.76C34.5383 191.995 34.8796 192.293 35.1996 192.656C35.5196 192.997 35.861 193.403 36.2236 193.872L39.3916 197.968C40.053 198.821 40.661 199.557 41.2156 200.176C41.7703 200.795 42.2396 201.264 42.6236 201.584V201.776C42.325 201.925 41.8876 202.032 41.3116 202.096C40.7356 202.181 40.1916 202.224 39.6796 202.224C39.4663 202.139 39.1783 201.915 38.8156 201.552C38.4743 201.168 37.9943 200.528 37.3756 199.632L33.5996 194.288C33.3223 193.904 33.0556 193.573 32.7996 193.296C32.565 193.019 32.2983 192.795 31.9996 192.624C31.7223 192.432 31.3916 192.304 31.0076 192.24C30.645 192.155 30.197 192.112 29.6636 192.112H28.1596V201.712C27.8183 201.904 27.413 202.032 26.9436 202.096C26.4956 202.181 26.0263 202.224 25.5356 202.224V179.856ZM31.5516 180.08C31.0396 180.08 30.485 180.112 29.8876 180.176C29.2903 180.24 28.7143 180.336 28.1596 180.464V190.384C28.5223 190.491 28.9383 190.576 29.4076 190.64C29.8983 190.704 30.453 190.736 31.0716 190.736C33.1623 190.736 34.8156 190.309 36.0316 189.456C37.2476 188.603 37.8556 187.291 37.8556 185.52C37.8556 184.752 37.7276 184.037 37.4716 183.376C37.2156 182.693 36.821 182.117 36.2876 181.648C35.7756 181.157 35.125 180.773 34.3356 180.496C33.5463 180.219 32.6183 180.08 31.5516 180.08ZM60.2904 200.816C60.2264 200.923 60.1197 201.051 59.9704 201.2C59.8424 201.349 59.693 201.499 59.5224 201.648C59.3517 201.776 59.1597 201.893 58.9464 202C58.7544 202.107 58.573 202.181 58.4024 202.224C57.7197 202.181 57.1437 201.925 56.6744 201.456C56.205 200.965 55.949 200.325 55.9064 199.536C55.7357 199.856 55.4797 200.197 55.1384 200.56C54.797 200.901 54.381 201.221 53.8904 201.52C53.421 201.797 52.877 202.021 52.2584 202.192C51.6397 202.384 50.9677 202.48 50.2424 202.48C48.7277 202.48 47.5224 202.096 46.6264 201.328C45.7517 200.56 45.3144 199.536 45.3144 198.256C45.3144 196.933 45.8157 195.824 46.8184 194.928C47.821 194.032 49.5384 193.371 51.9704 192.944L55.7784 192.272V191.024C55.7784 189.488 55.4157 188.315 54.6904 187.504C53.9864 186.693 52.9304 186.288 51.5224 186.288C50.6477 186.288 49.901 186.512 49.2824 186.96C48.685 187.387 48.3864 188.027 48.3864 188.88C48.3864 189.264 48.5144 189.605 48.7704 189.904C48.5784 190.16 48.269 190.395 47.8424 190.608C47.4157 190.821 46.9784 190.949 46.5304 190.992C46.4237 190.885 46.2957 190.725 46.1464 190.512C45.997 190.299 45.9224 190.011 45.9224 189.648C45.9224 188.987 46.1144 188.368 46.4984 187.792C46.8824 187.216 47.3837 186.725 48.0024 186.32C48.621 185.893 49.3357 185.563 50.1464 185.328C50.957 185.093 51.7997 184.976 52.6744 184.976C54.7224 184.976 56.173 185.445 57.0264 186.384C57.8797 187.301 58.3064 188.592 58.3064 190.256V198.288C58.3064 199.163 58.4984 199.771 58.8824 200.112C59.2664 200.432 59.7144 200.624 60.2264 200.688L60.2904 200.816ZM51.2664 200.784C52.3757 200.784 53.3144 200.528 54.0824 200.016C54.8717 199.504 55.437 198.843 55.7784 198.032V193.424L51.4904 194.192C50.3384 194.405 49.453 194.768 48.8344 195.28C48.237 195.792 47.9384 196.528 47.9384 197.488C47.9384 198.555 48.2584 199.376 48.8984 199.952C49.5597 200.507 50.349 200.784 51.2664 200.784ZM64.3659 185.84C65.0699 185.477 65.8699 185.296 66.7659 185.296V189.904C66.9792 189.264 67.2672 188.656 67.6299 188.08C67.9925 187.483 68.4192 186.96 68.9099 186.512C69.4219 186.064 69.9872 185.712 70.6059 185.456C71.2245 185.179 71.9072 185.04 72.6539 185.04C73.2299 185.04 73.7312 185.136 74.1579 185.328C74.5845 185.499 74.9365 185.723 75.2139 186C75.4912 186.256 75.6939 186.555 75.8219 186.896C75.9712 187.237 76.0565 187.568 76.0779 187.888C75.9072 188.187 75.6085 188.443 75.1819 188.656C74.7765 188.869 74.3712 188.997 73.9659 189.04C73.8592 188.464 73.6245 187.952 73.2619 187.504C72.8992 187.056 72.2912 186.832 71.4379 186.832C70.8192 186.832 70.2432 187.013 69.7099 187.376C69.1979 187.739 68.7392 188.251 68.3339 188.912C67.9285 189.552 67.5979 190.32 67.3419 191.216C67.1072 192.112 66.9579 193.093 66.8939 194.16V201.744C66.5952 201.915 66.2005 202.032 65.7099 202.096C65.2405 202.181 64.7925 202.224 64.3659 202.224V185.84ZM80.2739 193.744C80.3379 194.896 80.5405 195.909 80.8819 196.784C81.2445 197.637 81.7032 198.352 82.2579 198.928C82.8125 199.504 83.4525 199.941 84.1779 200.24C84.9245 200.517 85.7139 200.656 86.5459 200.656C87.5912 200.656 88.4872 200.517 89.2339 200.24C90.0019 199.963 90.6952 199.525 91.3139 198.928C91.6125 198.992 91.8152 199.195 91.9219 199.536C91.7725 199.771 91.5272 200.059 91.1859 200.4C90.8659 200.741 90.4285 201.072 89.8739 201.392C89.3405 201.712 88.6899 201.979 87.9219 202.192C87.1752 202.427 86.3005 202.544 85.2979 202.544C84.2312 202.544 83.2392 202.352 82.3219 201.968C81.4045 201.584 80.6045 201.029 79.9219 200.304C79.2392 199.579 78.6952 198.683 78.2899 197.616C77.9059 196.549 77.7139 195.344 77.7139 194C77.7139 192.763 77.9272 191.6 78.3539 190.512C78.7805 189.403 79.3565 188.443 80.0819 187.632C80.8285 186.821 81.6925 186.181 82.6739 185.712C83.6765 185.221 84.7432 184.976 85.8739 184.976C87.0899 184.976 88.0925 185.179 88.8819 185.584C89.6712 185.989 90.2899 186.512 90.7379 187.152C91.2072 187.792 91.5272 188.496 91.6979 189.264C91.8899 190.032 91.9859 190.779 91.9859 191.504C91.8152 191.76 91.5805 191.984 91.2819 192.176C91.0045 192.368 90.6952 192.517 90.3539 192.624L80.2739 193.744ZM85.0419 186.416C84.3805 186.416 83.7619 186.533 83.1859 186.768C82.6099 187.003 82.1085 187.365 81.6819 187.856C81.2552 188.347 80.9032 188.976 80.6259 189.744C80.3699 190.512 80.2312 191.44 80.2099 192.528L89.2339 191.6C89.2552 191.493 89.2659 191.387 89.2659 191.28C89.2659 191.173 89.2659 191.077 89.2659 190.992C89.2659 190.331 89.1805 189.723 89.0099 189.168C88.8392 188.613 88.5725 188.133 88.2099 187.728C87.8685 187.323 87.4312 187.003 86.8979 186.768C86.3859 186.533 85.7672 186.416 85.0419 186.416ZM95.6871 177.904C96.0711 177.691 96.4871 177.541 96.9351 177.456C97.4045 177.349 97.8631 177.296 98.3111 177.296L97.6071 185.776C97.5005 185.883 97.3298 185.979 97.0951 186.064C96.8818 186.128 96.6578 186.16 96.4231 186.16L95.6871 177.904ZM100.522 198.608C100.693 198.309 100.97 198.032 101.354 197.776C101.759 197.52 102.186 197.371 102.634 197.328C102.783 198.416 103.306 199.323 104.202 200.048C105.119 200.752 106.282 201.104 107.69 201.104C109.034 201.104 110.026 200.816 110.666 200.24C111.327 199.643 111.658 198.907 111.658 198.032C111.658 197.157 111.349 196.475 110.73 195.984C110.133 195.493 109.098 195.067 107.626 194.704L105.738 194.224C105.055 194.053 104.437 193.861 103.882 193.648C103.349 193.435 102.879 193.179 102.474 192.88C102.09 192.56 101.791 192.187 101.578 191.76C101.365 191.333 101.258 190.811 101.258 190.192C101.258 189.531 101.429 188.891 101.77 188.272C102.111 187.632 102.581 187.067 103.178 186.576C103.797 186.085 104.501 185.701 105.29 185.424C106.101 185.125 106.975 184.976 107.914 184.976C108.874 184.976 109.685 185.093 110.346 185.328C111.007 185.541 111.551 185.819 111.978 186.16C112.426 186.48 112.746 186.832 112.938 187.216C113.151 187.6 113.269 187.941 113.29 188.24C113.141 188.539 112.885 188.805 112.522 189.04C112.159 189.253 111.765 189.381 111.338 189.424C111.189 188.613 110.773 187.909 110.09 187.312C109.407 186.715 108.383 186.416 107.018 186.416C106.57 186.416 106.122 186.48 105.674 186.608C105.247 186.715 104.863 186.885 104.522 187.12C104.181 187.355 103.903 187.643 103.69 187.984C103.477 188.304 103.37 188.688 103.37 189.136C103.37 189.861 103.626 190.448 104.138 190.896C104.65 191.323 105.546 191.685 106.826 191.984L108.778 192.464C110.634 192.933 111.957 193.531 112.746 194.256C113.557 194.96 113.962 195.867 113.962 196.976C113.962 197.68 113.802 198.373 113.482 199.056C113.162 199.717 112.693 200.315 112.074 200.848C111.455 201.36 110.698 201.765 109.802 202.064C108.906 202.384 107.882 202.544 106.73 202.544C105.727 202.544 104.853 202.416 104.106 202.16C103.359 201.925 102.719 201.616 102.186 201.232C101.674 200.848 101.279 200.432 101.002 199.984C100.725 199.515 100.565 199.056 100.522 198.608ZM125.936 197.136C126.15 196.816 126.502 196.517 126.992 196.24C127.483 195.963 127.963 195.813 128.432 195.792C128.496 196.389 128.667 196.997 128.944 197.616C129.222 198.213 129.616 198.757 130.128 199.248C130.662 199.717 131.312 200.112 132.08 200.432C132.848 200.731 133.766 200.88 134.832 200.88C136.39 200.88 137.627 200.485 138.544 199.696C139.462 198.885 139.92 197.829 139.92 196.528C139.92 195.291 139.6 194.267 138.96 193.456C138.32 192.645 137.158 192.027 135.472 191.6L132.464 190.832C131.696 190.64 130.971 190.416 130.288 190.16C129.606 189.904 129.008 189.573 128.496 189.168C127.984 188.741 127.579 188.229 127.28 187.632C127.003 187.013 126.864 186.267 126.864 185.392C126.864 184.517 127.078 183.675 127.504 182.864C127.931 182.053 128.518 181.339 129.264 180.72C130.032 180.08 130.918 179.568 131.92 179.184C132.944 178.8 134.043 178.608 135.216 178.608C136.39 178.608 137.392 178.757 138.224 179.056C139.056 179.355 139.728 179.717 140.24 180.144C140.752 180.571 141.126 181.04 141.36 181.552C141.616 182.043 141.766 182.48 141.808 182.864C141.659 183.163 141.382 183.44 140.976 183.696C140.571 183.931 140.102 184.08 139.568 184.144C139.483 183.675 139.323 183.216 139.088 182.768C138.854 182.299 138.512 181.883 138.064 181.52C137.638 181.136 137.104 180.827 136.464 180.592C135.824 180.357 135.067 180.24 134.192 180.24C132.742 180.24 131.579 180.624 130.704 181.392C129.83 182.139 129.392 183.131 129.392 184.368C129.392 185.072 129.499 185.659 129.712 186.128C129.926 186.576 130.224 186.96 130.608 187.28C130.992 187.579 131.44 187.824 131.952 188.016C132.486 188.208 133.062 188.379 133.68 188.528L136.496 189.232C137.67 189.531 138.64 189.893 139.408 190.32C140.198 190.747 140.816 191.216 141.264 191.728C141.712 192.24 142.022 192.805 142.192 193.424C142.384 194.021 142.48 194.64 142.48 195.28C142.48 196.24 142.278 197.157 141.872 198.032C141.467 198.907 140.88 199.685 140.112 200.368C139.344 201.029 138.416 201.563 137.328 201.968C136.262 202.352 135.056 202.544 133.712 202.544C132.411 202.544 131.28 202.373 130.32 202.032C129.36 201.691 128.56 201.264 127.92 200.752C127.28 200.219 126.79 199.632 126.448 198.992C126.128 198.352 125.958 197.733 125.936 197.136ZM158.566 191.952C158.566 190.203 158.214 188.912 157.51 188.08C156.827 187.227 155.835 186.8 154.534 186.8C153.51 186.8 152.593 187.109 151.782 187.728C150.971 188.347 150.342 189.083 149.894 189.936V201.744C149.595 201.915 149.201 202.032 148.71 202.096C148.241 202.181 147.793 202.224 147.366 202.224V185.84C148.07 185.477 148.859 185.296 149.734 185.296V188.272C149.969 187.909 150.267 187.536 150.63 187.152C151.014 186.747 151.451 186.384 151.942 186.064C152.454 185.744 153.019 185.488 153.638 185.296C154.257 185.083 154.929 184.976 155.654 184.976C156.977 184.976 158.054 185.328 158.886 186.032C159.739 186.715 160.315 187.547 160.614 188.528C160.87 188.187 161.19 187.813 161.574 187.408C161.979 186.981 162.438 186.587 162.95 186.224C163.462 185.861 164.027 185.563 164.646 185.328C165.286 185.093 165.969 184.976 166.694 184.976C168.315 184.976 169.627 185.488 170.63 186.512C171.654 187.515 172.166 188.997 172.166 190.96V201.744C171.867 201.915 171.473 202.032 170.982 202.096C170.513 202.181 170.065 202.224 169.638 202.224V191.952C169.638 188.517 168.305 186.8 165.638 186.8C164.763 186.8 163.91 187.099 163.078 187.696C162.267 188.272 161.606 188.997 161.094 189.872V201.744C160.795 201.915 160.401 202.032 159.91 202.096C159.441 202.181 158.993 202.224 158.566 202.224V191.952ZM181.415 180.272C181.223 180.613 180.924 180.976 180.519 181.36C180.114 181.723 179.751 181.979 179.431 182.128C179.111 181.979 178.748 181.723 178.343 181.36C177.938 180.976 177.628 180.613 177.415 180.272C177.628 179.909 177.938 179.536 178.343 179.152C178.748 178.768 179.111 178.491 179.431 178.32C179.751 178.491 180.114 178.768 180.519 179.152C180.946 179.536 181.244 179.909 181.415 180.272ZM178.087 185.84C178.45 185.648 178.844 185.509 179.271 185.424C179.719 185.339 180.167 185.296 180.615 185.296V201.744C180.316 201.915 179.922 202.032 179.431 202.096C178.962 202.181 178.514 202.224 178.087 202.224V185.84ZM186.649 177.84C187.012 177.648 187.407 177.509 187.833 177.424C188.281 177.339 188.729 177.296 189.177 177.296V201.744C188.879 201.915 188.484 202.032 187.993 202.096C187.524 202.181 187.076 202.224 186.649 202.224V177.84ZM196.555 193.744C196.619 194.896 196.822 195.909 197.163 196.784C197.526 197.637 197.984 198.352 198.539 198.928C199.094 199.504 199.734 199.941 200.459 200.24C201.206 200.517 201.995 200.656 202.827 200.656C203.872 200.656 204.768 200.517 205.515 200.24C206.283 199.963 206.976 199.525 207.595 198.928C207.894 198.992 208.096 199.195 208.203 199.536C208.054 199.771 207.808 200.059 207.467 200.4C207.147 200.741 206.71 201.072 206.155 201.392C205.622 201.712 204.971 201.979 204.203 202.192C203.456 202.427 202.582 202.544 201.579 202.544C200.512 202.544 199.52 202.352 198.603 201.968C197.686 201.584 196.886 201.029 196.203 200.304C195.52 199.579 194.976 198.683 194.571 197.616C194.187 196.549 193.995 195.344 193.995 194C193.995 192.763 194.208 191.6 194.635 190.512C195.062 189.403 195.638 188.443 196.363 187.632C197.11 186.821 197.974 186.181 198.955 185.712C199.958 185.221 201.024 184.976 202.155 184.976C203.371 184.976 204.374 185.179 205.163 185.584C205.952 185.989 206.571 186.512 207.019 187.152C207.488 187.792 207.808 188.496 207.979 189.264C208.171 190.032 208.267 190.779 208.267 191.504C208.096 191.76 207.862 191.984 207.563 192.176C207.286 192.368 206.976 192.517 206.635 192.624L196.555 193.744ZM201.323 186.416C200.662 186.416 200.043 186.533 199.467 186.768C198.891 187.003 198.39 187.365 197.963 187.856C197.536 188.347 197.184 188.976 196.907 189.744C196.651 190.512 196.512 191.44 196.491 192.528L205.515 191.6C205.536 191.493 205.547 191.387 205.547 191.28C205.547 191.173 205.547 191.077 205.547 190.992C205.547 190.331 205.462 189.723 205.291 189.168C205.12 188.613 204.854 188.133 204.491 187.728C204.15 187.323 203.712 187.003 203.179 186.768C202.667 186.533 202.048 186.416 201.323 186.416Z" fill="#22998D"/>
<g clip-path="url(#clip0_2122_5231)">
<path d="M254.345 209.276C258.906 210.579 263.811 209.419 267.308 206.208C270.801 203.033 275.607 201.647 280.107 201.88C288.13 202.264 295.322 206.549 302.006 209.621C305.111 211.054 308.319 212.435 311.838 213.103C320.343 214.73 328.091 210.523 334.366 204.448C347.298 191.939 350.718 171.323 346.803 157.058C344.236 147.716 331.114 129.317 314.043 131.13C297.85 132.855 307.6 156.376 292.286 158.663C275.366 161.191 274.767 134.707 254.031 138.305C235.315 141.559 225.995 158.201 231.843 171.853C234.699 178.52 240.164 183.767 243.071 190.364C246.193 197.445 244.811 206.407 254.341 209.28L254.345 209.276Z" fill="#6AD2C8"/>
<path d="M254.345 209.276C258.906 210.579 263.811 209.419 267.308 206.208C270.801 203.033 275.607 201.647 280.107 201.88C288.13 202.264 295.322 206.549 302.006 209.621C305.111 211.054 308.319 212.435 311.838 213.103C320.343 214.73 328.091 210.523 334.366 204.448C347.298 191.939 350.718 171.323 346.803 157.058C344.236 147.716 331.114 129.317 314.043 131.13C297.85 132.855 307.6 156.376 292.286 158.663C275.366 161.191 274.767 134.707 254.031 138.305C235.315 141.559 225.995 158.201 231.843 171.853C234.699 178.52 240.164 183.767 243.071 190.364C246.193 197.445 244.811 206.407 254.341 209.28L254.345 209.276Z" fill="#C3EDE9"/>
<path d="M284.5 277.412C330.616 277.412 368 275.226 368 272.528C368 269.83 330.616 267.644 284.5 267.644C238.384 267.644 201 269.83 201 272.528C201 275.226 238.384 277.412 284.5 277.412Z" fill="#E5E5E5"/>
<path d="M258.837 189.376C258.342 187.223 256.425 185.695 254.221 185.695H219.768C217.15 185.695 215.031 187.818 215.031 190.442V267.169C215.031 269.792 217.15 271.915 219.768 271.915H329.155C331.773 271.915 333.892 269.792 333.892 267.169V202.717C333.892 200.094 331.773 197.971 329.155 197.971H269.616C264.462 197.971 259.991 194.407 258.837 189.376Z" fill="#6AD2C8"/>
<path d="M258.837 189.376C258.342 187.223 256.425 185.695 254.221 185.695H219.768C217.15 185.695 215.031 187.818 215.031 190.442V267.169C215.031 269.792 217.15 271.915 219.768 271.915H329.155C331.773 271.915 333.892 269.792 333.892 267.169V202.717C333.892 200.094 331.773 197.971 329.155 197.971H269.616C264.462 197.971 259.991 194.407 258.837 189.376Z" fill="url(#paint1_linear_2122_5231)"/>
<path d="M246.676 165.48L249.746 175.444C250.565 178.084 253.36 179.564 255.995 178.749L265.935 175.672L246.676 165.48Z" fill="#6AD2C8"/>
<path d="M246.676 165.48L211.146 176.479C208.511 177.29 207.029 180.086 207.839 182.727C207.839 182.727 207.839 182.731 207.839 182.736L228.123 248.529C228.937 251.169 231.732 252.649 234.372 251.834L279.845 237.759C282.48 236.948 283.958 234.147 283.144 231.507C283.144 231.507 283.144 231.507 283.144 231.502L265.917 175.672L246.671 165.48H246.676Z" fill="#6AD2C8"/>
<path d="M246.676 165.48L211.146 176.479C208.511 177.29 207.029 180.086 207.839 182.727C207.839 182.727 207.839 182.731 207.839 182.736L228.123 248.529C228.937 251.169 231.732 252.649 234.372 251.834L279.845 237.759C282.48 236.948 283.958 234.147 283.144 231.507C283.144 231.507 283.144 231.507 283.144 231.502L265.917 175.672L246.671 165.48H246.676Z" fill="#C3EDE9"/>
<g opacity="0.28">
<path d="M265.792 234.885L236.232 244.032C235.082 244.386 233.859 243.743 233.502 242.591C233.153 241.439 233.795 240.218 234.944 239.86L264.505 230.708C265.659 230.354 266.878 231.001 267.235 232.154C267.584 233.306 266.942 234.527 265.792 234.885Z" fill="#6AD2C8"/>
</g>
<path d="M233.98 181.199L218.347 186.036C217.197 186.386 215.978 185.743 215.616 184.595C215.268 183.443 215.909 182.218 217.059 181.86L232.692 177.023C233.842 176.664 235.065 177.312 235.422 178.464C235.771 179.616 235.129 180.841 233.98 181.199Z" fill="#6AD2C8"/>
<path d="M246.736 186.33L220.896 194.325C219.747 194.67 218.536 194.027 218.179 192.88C217.826 191.727 218.468 190.506 219.617 190.148L245.457 182.153C246.607 181.799 247.83 182.442 248.187 183.594C248.536 184.75 247.886 185.971 246.736 186.33Z" fill="#6AD2C8"/>
<path d="M261.163 190.943L223.455 202.593C222.305 202.947 221.086 202.304 220.729 201.152C220.38 200 221.022 198.779 222.167 198.416L259.875 186.766C261.025 186.417 262.244 187.059 262.602 188.207C262.955 189.359 262.313 190.585 261.163 190.943Z" fill="#6AD2C8"/>
<g opacity="0.28">
<path d="M263.717 199.228L241.796 206.015C240.646 206.364 239.428 205.722 239.07 204.569C238.721 203.417 239.363 202.196 240.508 201.838L262.429 195.051C263.579 194.701 264.798 195.349 265.159 196.496C265.508 197.648 264.866 198.869 263.717 199.228Z" fill="#6AD2C8"/>
</g>
<path d="M231.744 209.125L226.012 210.899C224.863 211.253 223.64 210.61 223.282 209.458C222.929 208.301 223.575 207.08 224.725 206.722L230.457 204.949C231.607 204.599 232.825 205.242 233.187 206.39C233.536 207.542 232.89 208.763 231.744 209.125Z" fill="#6AD2C8"/>
<g opacity="0.28">
<path d="M266.275 207.516L228.567 219.188C227.417 219.537 226.198 218.894 225.841 217.742C225.487 216.59 226.129 215.369 227.279 215.011L264.987 203.339C266.137 202.99 267.356 203.633 267.713 204.78C268.066 205.933 267.425 207.158 266.275 207.516Z" fill="#6AD2C8"/>
</g>
<g opacity="0.28">
<path d="M254.277 220.305L231.12 227.472C229.971 227.822 228.752 227.179 228.394 226.031C228.045 224.879 228.687 223.658 229.833 223.295L252.989 216.128C254.139 215.779 255.362 216.422 255.719 217.574C256.073 218.726 255.427 219.947 254.277 220.305Z" fill="#6AD2C8"/>
</g>
<g opacity="0.28">
<path d="M268.828 215.805L262.649 217.717C261.499 218.066 260.276 217.423 259.918 216.271C259.569 215.119 260.211 213.898 261.361 213.54L267.541 211.628C268.691 211.275 269.909 211.917 270.267 213.07C270.62 214.222 269.978 215.447 268.828 215.805Z" fill="#6AD2C8"/>
</g>
<g opacity="0.28">
<path d="M271.383 224.098L233.683 235.748C232.529 236.102 231.31 235.455 230.952 234.303C230.599 233.15 231.245 231.929 232.395 231.571L270.099 219.899C271.249 219.55 272.468 220.197 272.83 221.345C273.191 222.501 272.55 223.731 271.4 224.094C271.395 224.094 271.391 224.094 271.383 224.098Z" fill="#6AD2C8"/>
</g>
<path d="M272.192 140.739L283.467 165.912C284.074 167.28 283.467 168.885 282.106 169.502L234.277 191.012C232.912 191.625 231.31 191.012 230.694 189.648L219.415 164.476C218.799 163.108 219.411 161.498 220.776 160.881L268.605 139.372C269.974 138.763 271.576 139.372 272.192 140.739Z" fill="#6AD2C8"/>
<path d="M272.192 140.739L283.467 165.912C284.074 167.28 283.467 168.885 282.106 169.502L234.277 191.012C232.912 191.625 231.31 191.012 230.694 189.648L219.415 164.476C218.799 163.108 219.411 161.498 220.776 160.881L268.605 139.372C269.974 138.763 271.576 139.372 272.192 140.739Z" fill="url(#paint2_linear_2122_5231)"/>
<path d="M264.654 139.498L263.125 140.185L263.302 140.578L264.83 139.891L264.654 139.498Z" fill="#6AD2C8"/>
<path d="M260.983 141.14L256.217 143.282L256.393 143.676L261.159 141.534L260.983 141.14Z" fill="#6AD2C8"/>
<path d="M219.37 167.011L218.978 167.188L220.283 170.1L220.676 169.924L219.37 167.011Z" fill="#6AD2C8"/>
<path d="M270.59 139.281L258.256 163.487C255.9 168.108 250.651 170.469 245.638 169.161L219.389 162.305C219.66 161.675 220.151 161.166 220.776 160.881L268.605 139.371C269.229 139.091 269.94 139.056 270.59 139.281Z" fill="#6AD2C8"/>
<path d="M287.545 170.262L250.431 172.557C247.675 172.721 245.577 175.09 245.741 177.852C245.741 177.852 245.741 177.856 245.741 177.86L249.974 246.587C250.138 249.345 252.507 251.45 255.263 251.282H255.276L302.777 248.344C305.525 248.18 307.622 245.811 307.454 243.054C307.454 243.049 307.454 243.045 307.454 243.041L303.88 184.717L287.545 170.262Z" fill="#6AD2C8"/>
<path d="M287.545 170.262L250.431 172.557C247.675 172.721 245.577 175.09 245.741 177.852C245.741 177.852 245.741 177.856 245.741 177.86L249.974 246.587C250.138 249.345 252.507 251.45 255.263 251.282H255.276L302.777 248.344C305.525 248.18 307.622 245.811 307.454 243.054C307.454 243.049 307.454 243.045 307.454 243.041L303.88 184.717L287.545 170.262Z" fill="#C3EDE9"/>
<g opacity="0.22">
<path d="M289.789 242.221L258.906 244.132C257.705 244.201 256.675 243.287 256.598 242.083C256.529 240.879 257.438 239.848 258.639 239.766L289.522 237.859C290.723 237.785 291.757 238.7 291.834 239.904C291.907 241.108 290.99 242.143 289.789 242.221Z" fill="#6AD2C8"/>
</g>
<path d="M271.511 182.537L255.177 183.538C253.975 183.607 252.946 182.697 252.864 181.493C252.795 180.289 253.708 179.254 254.91 179.176L271.244 178.166C272.446 178.093 273.475 179.008 273.553 180.211C273.63 181.42 272.717 182.46 271.511 182.537Z" fill="#6AD2C8"/>
<path d="M282.7 190.537L255.711 192.203C254.509 192.276 253.476 191.361 253.398 190.158C253.325 188.954 254.242 187.918 255.444 187.841L282.429 186.175C283.63 186.102 284.664 187.016 284.741 188.22C284.815 189.424 283.902 190.46 282.7 190.537Z" fill="#6AD2C8"/>
<path d="M295.633 198.429L256.245 200.862C255.039 200.936 254.001 200.021 253.924 198.813C253.85 197.609 254.763 196.578 255.965 196.5L295.357 194.062C296.559 193.993 297.588 194.908 297.665 196.112C297.739 197.311 296.83 198.347 295.633 198.429Z" fill="#6AD2C8"/>
<g opacity="0.22">
<path d="M296.166 207.084L273.268 208.5C272.067 208.573 271.033 207.658 270.956 206.454C270.883 205.25 271.796 204.215 272.997 204.137L295.895 202.722C297.097 202.649 298.13 203.563 298.208 204.767C298.281 205.971 297.368 207.007 296.166 207.084Z" fill="#6AD2C8"/>
</g>
<g opacity="0.22">
<path d="M262.765 209.147L256.774 209.518C255.573 209.592 254.544 208.677 254.466 207.473C254.393 206.269 255.306 205.234 256.507 205.156L262.498 204.785C263.699 204.716 264.733 205.631 264.81 206.834C264.879 208.038 263.966 209.07 262.765 209.147Z" fill="#6AD2C8"/>
</g>
<g opacity="0.22">
<path d="M296.701 215.74L257.308 218.174C256.107 218.247 255.073 217.333 254.996 216.129C254.927 214.925 255.84 213.889 257.041 213.812L296.429 211.378C297.631 211.305 298.664 212.224 298.742 213.428C298.815 214.632 297.902 215.663 296.701 215.74Z" fill="#6AD2C8"/>
</g>
<g opacity="0.22">
<path d="M282.033 225.337L257.843 226.834C256.641 226.903 255.608 225.988 255.53 224.784C255.461 223.581 256.374 222.549 257.576 222.472L281.766 220.974C282.967 220.905 283.996 221.82 284.074 223.024C284.147 224.228 283.234 225.263 282.033 225.337Z" fill="#6AD2C8"/>
</g>
<g opacity="0.22">
<path d="M297.23 224.4L290.77 224.797C289.569 224.87 288.54 223.955 288.462 222.751C288.389 221.548 289.302 220.512 290.503 220.434L296.963 220.037C298.165 219.964 299.198 220.879 299.276 222.083C299.345 223.286 298.432 224.322 297.23 224.4Z" fill="#6AD2C8"/>
</g>
<g opacity="0.22">
<path d="M297.764 233.056L258.376 235.489C257.175 235.563 256.141 234.648 256.064 233.444C255.99 232.24 256.903 231.205 258.105 231.127L297.497 228.694C298.699 228.62 299.728 229.535 299.805 230.739C299.879 231.943 298.966 232.978 297.764 233.056Z" fill="#6AD2C8"/>
</g>
<path d="M287.545 170.262L288.187 180.669C288.355 183.426 290.723 185.528 293.479 185.359L303.88 184.717L287.545 170.262Z" fill="#6AD2C8"/>
<path opacity="0.5" d="M275.392 196.224C275.366 194.162 273.673 192.513 271.619 192.539C271.585 192.539 271.55 192.539 271.516 192.539H237.02C234.406 192.539 231.852 194.667 231.361 197.286L217.748 267.165C217.24 269.784 218.945 271.911 221.56 271.911H330.946C333.56 271.911 336.093 269.788 336.605 267.165L347.832 209.562C348.341 206.938 346.635 204.815 344.021 204.815H284.5C279.332 204.815 275.568 201.251 275.392 196.22V196.224Z" fill="url(#paint3_linear_2122_5231)"/>
<g style="mix-blend-mode:multiply">
<path d="M333.082 279C344.599 279 353.935 277.906 353.935 276.557C353.935 275.209 344.599 274.115 333.082 274.115C321.566 274.115 312.23 275.209 312.23 276.557C312.23 277.906 321.566 279 333.082 279Z" fill="#E5E5E5"/>
</g>
<g filter="url(#filter2_d_2122_5231)">
<path d="M358.87 161.17H304.793C302.329 161.17 300.357 163.159 300.357 165.644V268.589C300.357 271.074 302.329 273.063 304.793 273.063H358.87C361.334 273.063 363.306 271.074 363.306 268.589V165.649C363.306 163.163 361.334 161.174 358.87 161.174V161.17ZM327.088 164.652H336.696C337.066 164.652 337.312 164.902 337.312 165.273C337.312 165.644 337.066 165.895 336.696 165.895H327.088C326.717 165.895 326.472 165.644 326.472 165.273C326.472 164.902 326.717 164.652 327.088 164.652ZM331.894 270.336C330.417 270.336 329.306 269.093 329.306 267.726C329.306 266.233 330.537 265.115 331.894 265.115C333.25 265.115 334.482 266.358 334.482 267.726C334.482 269.093 333.25 270.336 331.894 270.336ZM359.732 262.004H303.931V168.755H359.611V262.004H359.736H359.732Z" fill="url(#paint4_linear_2122_5231)"/>
<path d="M358.87 161.17H304.793C302.329 161.17 300.357 163.159 300.357 165.644V268.589C300.357 271.074 302.329 273.063 304.793 273.063H358.87C361.334 273.063 363.306 271.074 363.306 268.589V165.649C363.306 163.163 361.334 161.174 358.87 161.174V161.17ZM327.088 164.652H336.696C337.066 164.652 337.312 164.902 337.312 165.273C337.312 165.644 337.066 165.895 336.696 165.895H327.088C326.717 165.895 326.472 165.644 326.472 165.273C326.472 164.902 326.717 164.652 327.088 164.652ZM331.894 270.336C330.417 270.336 329.306 269.093 329.306 267.726C329.306 266.233 330.537 265.115 331.894 265.115C333.25 265.115 334.482 266.358 334.482 267.726C334.482 269.093 333.25 270.336 331.894 270.336ZM359.732 262.004H303.931V168.755H359.611V262.004H359.736H359.732Z" stroke="#A0A0A0" stroke-opacity="0.16" stroke-miterlimit="10"/>
</g>
<g opacity="0.86">
<path d="M359.607 168.756H303.927V262.004H359.607V168.756Z" fill="white"/>
<path d="M304.427 261.504V169.256H359.107V261.504H304.427Z" stroke="#A0A0A0" stroke-opacity="0.16"/>
</g>
<g style="mix-blend-mode:multiply">
<path d="M353.556 225.453C348.72 229.172 343.091 231.709 337.118 232.861C331.145 234.018 324.995 233.759 319.146 232.106C328.496 226.445 343.026 222.687 353.556 225.453Z" fill="#EBEBEB"/>
<path d="M356.807 213.806C352.677 216.982 347.871 219.144 342.772 220.128C337.673 221.112 332.419 220.887 327.432 219.472C335.412 214.656 347.815 211.446 356.807 213.806Z" fill="#EBEBEB"/>
<path d="M358.194 203.649C354.886 206.191 351.041 207.926 346.958 208.715C342.875 209.505 338.672 209.324 334.676 208.193C341.088 204.318 351.019 201.751 358.194 203.649Z" fill="#EBEBEB"/>
<path d="M311.274 198.821C310.124 204.935 310.404 211.231 312.096 217.207C313.785 223.183 316.838 228.676 321.011 233.25C321.855 222.135 318.599 207.158 311.278 198.821H311.274Z" fill="#EBEBEB"/>
<path d="M320.24 190.541C319.263 195.758 319.499 201.134 320.942 206.234C322.385 211.334 324.986 216.025 328.548 219.925C329.267 210.433 326.489 197.661 320.24 190.541Z" fill="#EBEBEB"/>
<path d="M328.711 184.625C327.927 188.806 328.121 193.108 329.275 197.194C330.43 201.28 332.514 205.034 335.365 208.163C335.942 200.56 333.72 190.321 328.711 184.625Z" fill="#EBEBEB"/>
<path d="M354.869 178.395C353.642 187.736 346.144 198.743 337.914 203.244C339.486 192.319 345.842 182.429 354.869 178.395Z" fill="#EBEBEB"/>
<path d="M309.797 249.659C310.025 249.801 317.273 238.349 326.041 224.076C334.814 209.802 341.678 198.096 341.45 197.953C341.226 197.811 333.948 209.271 325.206 223.536C316.463 237.801 309.564 249.516 309.797 249.659Z" fill="#EBEBEB"/>
</g>
<g style="mix-blend-mode:hard-light" filter="url(#filter3_d_2122_5231)">
<path d="M257.705 223.601C259.16 228.865 259.371 234.392 258.321 239.738C257.274 245.084 254.996 250.107 251.667 254.409C250.121 244.748 251.882 231.419 257.705 223.605V223.601Z" fill="#EBEBEB"/>
<path d="M249.16 216.995C250.401 221.491 250.577 226.207 249.682 230.772C248.786 235.338 246.839 239.622 243.993 243.294C242.683 235.049 244.191 223.675 249.156 216.999L249.16 216.995Z" fill="#EBEBEB"/>
<path d="M241.219 212.435C242.214 216.033 242.356 219.809 241.641 223.463C240.926 227.118 239.367 230.548 237.089 233.487C236.034 226.863 237.244 217.755 241.219 212.435Z" fill="#EBEBEB"/>
<path d="M221.491 249.779C226.163 252.786 231.465 254.663 236.977 255.263C242.49 255.863 248.054 255.173 253.239 253.244C244.324 248.817 230.845 246.495 221.495 249.779H221.491Z" fill="#EBEBEB"/>
<path d="M217.649 239.557C221.637 242.12 226.163 243.721 230.866 244.234C235.569 244.748 240.319 244.157 244.742 242.513C237.128 238.733 225.629 236.757 217.649 239.557Z" fill="#EBEBEB"/>
<path d="M215.595 230.539C218.791 232.593 222.417 233.875 226.181 234.285C229.949 234.695 233.756 234.224 237.296 232.904C231.202 229.875 221.982 228.287 215.591 230.535L215.595 230.539Z" fill="#EBEBEB"/>
<path d="M219.212 206.726C226.529 210.876 233.118 220.796 234.083 229.137C225.569 224.166 219.522 215.571 219.212 206.726Z" fill="#EBEBEB"/>
<path d="M263.049 268.057C263.243 267.915 256.202 258.055 247.335 245.986C238.467 233.918 231.086 224.287 230.892 224.429C230.698 224.567 237.74 234.453 246.607 246.5C255.474 258.547 262.855 268.204 263.049 268.057Z" fill="#EBEBEB"/>
</g>
</g>
<defs>
<filter id="filter0_d_2122_5231" x="-4" y="-2" width="398" height="263" filterUnits="userSpaceOnUse" color-interpolation-filters="sRGB">
<feFlood flood-opacity="0" result="BackgroundImageFix"/>
<feColorMatrix in="SourceAlpha" type="matrix" values="0 0 0 0 0 0 0 0 0 0 0 0 0 0 0 0 0 0 127 0" result="hardAlpha"/>
<feOffset dy="2"/>
<feGaussianBlur stdDeviation="2"/>
<feComposite in2="hardAlpha" operator="out"/>
<feColorMatrix type="matrix" values="0 0 0 0 0.666667 0 0 0 0 0.898039 0 0 0 0 0.87451 0 0 0 0.51 0"/>
<feBlend mode="normal" in2="BackgroundImageFix" result="effect1_dropShadow_2122_5231"/>
<feBlend mode="normal" in="SourceGraphic" in2="effect1_dropShadow_2122_5231" result="shape"/>
</filter>
<filter id="filter1_d_2122_5231" x="37.2349" y="152.059" width="158.138" height="25.7461" filterUnits="userSpaceOnUse" color-interpolation-filters="sRGB">
<feFlood flood-opacity="0" result="BackgroundImageFix"/>
<feColorMatrix in="SourceAlpha" type="matrix" values="0 0 0 0 0 0 0 0 0 0 0 0 0 0 0 0 0 0 127 0" result="hardAlpha"/>
<feOffset dy="4"/>
<feGaussianBlur stdDeviation="2"/>
<feComposite in2="hardAlpha" operator="out"/>
<feColorMatrix type="matrix" values="0 0 0 0 0 0 0 0 0 0 0 0 0 0 0 0 0 0 0.25 0"/>
<feBlend mode="normal" in2="BackgroundImageFix" result="effect1_dropShadow_2122_5231"/>
<feBlend mode="normal" in="SourceGraphic" in2="effect1_dropShadow_2122_5231" result="shape"/>
</filter>
<filter id="filter2_d_2122_5231" x="296.857" y="160.67" width="71.9492" height="120.894" filterUnits="userSpaceOnUse" color-interpolation-filters="sRGB">
<feFlood flood-opacity="0" result="BackgroundImageFix"/>
<feColorMatrix in="SourceAlpha" type="matrix" values="0 0 0 0 0 0 0 0 0 0 0 0 0 0 0 0 0 0 127 0" result="hardAlpha"/>
<feOffset dx="1" dy="4"/>
<feGaussianBlur stdDeviation="2"/>
<feColorMatrix type="matrix" values="0 0 0 0 0.396078 0 0 0 0 0.447059 0 0 0 0 0.447059 0 0 0 0.19 0"/>
<feBlend mode="normal" in2="BackgroundImageFix" result="effect1_dropShadow_2122_5231"/>
<feBlend mode="normal" in="SourceGraphic" in2="effect1_dropShadow_2122_5231" result="shape"/>
</filter>
<filter id="filter3_d_2122_5231" x="212.591" y="206.726" width="55.4624" height="69.333" filterUnits="userSpaceOnUse" color-interpolation-filters="sRGB">
<feFlood flood-opacity="0" result="BackgroundImageFix"/>
<feColorMatrix in="SourceAlpha" type="matrix" values="0 0 0 0 0 0 0 0 0 0 0 0 0 0 0 0 0 0 127 0" result="hardAlpha"/>
<feOffset dx="1" dy="4"/>
<feGaussianBlur stdDeviation="2"/>
<feColorMatrix type="matrix" values="0 0 0 0 0.396078 0 0 0 0 0.447059 0 0 0 0 0.447059 0 0 0 0.71 0"/>
<feBlend mode="normal" in2="BackgroundImageFix" result="effect1_dropShadow_2122_5231"/>
<feBlend mode="normal" in="SourceGraphic" in2="effect1_dropShadow_2122_5231" result="shape"/>
</filter>
<linearGradient id="paint0_linear_2122_5231" x1="390" y1="255" x2="156.404" y2="-102.264" gradientUnits="userSpaceOnUse">
<stop stop-color="#EAD6EE"/>
<stop offset="1" stop-color="#A0F1EA"/>
</linearGradient>
<linearGradient id="paint1_linear_2122_5231" x1="215.031" y1="228.805" x2="333.892" y2="228.805" gradientUnits="userSpaceOnUse">
<stop stop-color="#5AE6D8"/>
<stop offset="1" stop-color="#217BB2"/>
</linearGradient>
<linearGradient id="paint2_linear_2122_5231" x1="219.174" y1="165.192" x2="283.704" y2="165.192" gradientUnits="userSpaceOnUse">
<stop stop-color="#5AE6D8"/>
<stop offset="1" stop-color="#217BB2"/>
</linearGradient>
<linearGradient id="paint3_linear_2122_5231" x1="217.658" y1="232.228" x2="347.923" y2="232.228" gradientUnits="userSpaceOnUse">
<stop stop-color="#5AE6D8"/>
<stop offset="1" stop-color="#217BB2"/>
</linearGradient>
<linearGradient id="paint4_linear_2122_5231" x1="294.143" y1="195.374" x2="379.697" y2="244.55" gradientUnits="userSpaceOnUse">
<stop stop-color="#5AE6D8"/>
<stop offset="1" stop-color="#217BB2"/>
</linearGradient>
<clipPath id="clip0_2122_5231">
<rect width="167" height="148" fill="white" transform="translate(201 131)"/>
</clipPath>
</defs>
</svg>
