<svg width="80" height="65" viewBox="0 0 80 65" fill="none" xmlns="http://www.w3.org/2000/svg">
<path d="M61.1664 28.3212H74.7434C75.7021 28.347 76.4707 29.125 76.4707 30.0835V53.3932L59.4434 53.3889V30.0836C59.4434 29.1251 60.212 28.3471 61.1664 28.3212ZM68.24 57.2053H68.2357C67.264 57.2053 66.4737 57.9918 66.4737 58.959V58.9633C66.4737 59.9347 67.264 60.7213 68.24 60.7213C69.216 60.7213 70.0063 59.9347 70.0063 58.9633V58.959C70.0063 57.9919 69.216 57.2053 68.24 57.2053ZM33.6581 55.6493H39.2763V61.2455H33.6581V55.6493ZM76.4717 56.9043V59.4833C76.4717 60.4418 75.7031 61.2198 74.7444 61.2456H61.1674C60.213 61.2198 59.4443 60.4419 59.4443 59.4833V56.9087L76.4717 56.9043ZM67.6405 6.29622e-06H5.29878C2.37091 0.00430424 0 2.36399 0 5.27396V50.3705C0 53.2846 2.3708 55.6444 5.29878 55.6487H30.13V61.245H23.0693C22.0934 61.245 21.303 62.0315 21.303 63.003C21.303 63.9744 22.0933 64.761 23.0693 64.761H31.8617H49.8652C50.8411 64.761 51.6315 63.9744 51.6315 63.003C51.6315 62.0316 50.8412 61.245 49.8652 61.245H42.8088V55.6487H50.9621C51.938 55.6487 52.7284 54.8622 52.7284 53.8907C52.7284 52.9193 51.9381 52.1327 50.9621 52.1327L5.25523 52.1284C4.29653 52.1069 3.53215 51.3246 3.53215 50.3661V44.2024H49.9819C50.9579 44.2024 51.7482 43.4158 51.7482 42.4444C51.7482 41.4729 50.9579 40.6863 49.9819 40.6863H3.53215L3.52783 5.27725C3.52783 4.31875 4.29652 3.5408 5.25522 3.51494H67.6831C68.6375 3.54073 69.4062 4.31871 69.4062 5.27725V20.3388C69.4062 21.3102 70.1965 22.0968 71.1725 22.0968C72.1485 22.0968 72.9388 21.3102 72.9388 20.3388V5.27395C72.9345 2.36409 70.5641 0.00429764 67.6405 6.29622e-06ZM61.2103 24.8051V24.8094L61.206 24.8137H61.2017H61.193C58.2738 24.8137 55.9116 27.1734 55.9116 30.079V59.488C55.9116 62.3978 58.2824 64.7619 61.2104 64.7619H74.7055C77.6291 64.7619 80 62.3979 80 59.488V30.079C80 27.1692 77.6292 24.8094 74.7055 24.8094V24.8051L61.2103 24.8051Z" fill="#5A5A5A"/>
</svg>
