<svg width="18" height="22" viewBox="0 0 18 22" fill="none" xmlns="http://www.w3.org/2000/svg">
<path d="M3.60005 7.79999V6.88571C3.60005 3.8468 6.00862 1.39999 9.00005 1.39999C11.9915 1.39999 14.4001 3.8468 14.4001 6.88571V7.79999M3.60005 7.79999C2.61005 7.79999 1.80005 8.62285 1.80005 9.62856V18.7714C1.80005 19.7771 2.61005 20.6 3.60005 20.6H14.4001C15.3901 20.6 16.2001 19.7771 16.2001 18.7714V9.62856C16.2001 8.62285 15.3901 7.79999 14.4001 7.79999M3.60005 7.79999H14.4001M9.00005 12.3714C9.99005 12.3714 10.8001 13.1943 10.8001 14.2C10.8001 15.2057 9.99005 16.0286 9.00005 16.0286C8.01005 16.0286 7.20005 15.2057 7.20005 14.2C7.20005 13.1943 8.01005 12.3714 9.00005 12.3714Z" stroke="#888888" stroke-width="2"/>
</svg>
