<svg width="58" height="58" viewBox="0 0 58 58" fill="none" xmlns="http://www.w3.org/2000/svg">
<path d="M0.399902 54.5996C0.399716 56.2565 1.74271 57.5998 3.39957 57.6C5.05642 57.6002 6.39972 56.2572 6.3999 54.6003L0.399902 54.5996ZM3.40098 44.9989L6.40098 44.9992L3.40098 44.9989ZM30.5999 38.4C32.2568 38.4 33.5999 37.0568 33.5999 35.4C33.5999 33.7431 32.2568 32.4 30.5999 32.4V38.4ZM54.5999 41.6C56.2567 41.6 57.5999 40.2568 57.5999 38.6C57.5999 36.9431 56.2567 35.6 54.5999 35.6V41.6ZM40.1999 35.6C38.543 35.6 37.1999 36.9431 37.1999 38.6C37.1999 40.2568 38.543 41.6 40.1999 41.6V35.6ZM44.3999 45.7996C44.3999 47.4565 45.743 48.7996 47.3999 48.7996C49.0568 48.7996 50.3999 47.4565 50.3999 45.7996H44.3999ZM50.3999 31.3996C50.3999 29.7428 49.0568 28.3996 47.3999 28.3996C45.743 28.3996 44.3999 29.7428 44.3999 31.3996H50.3999ZM32.3999 13C32.3999 16.6451 29.445 19.6 25.7999 19.6V25.6C32.7587 25.6 38.3999 19.9588 38.3999 13H32.3999ZM25.7999 19.6C22.1548 19.6 19.1999 16.6451 19.1999 13H13.1999C13.1999 19.9588 18.8411 25.6 25.7999 25.6V19.6ZM19.1999 13C19.1999 9.35491 22.1548 6.39999 25.7999 6.39999V0.399994C18.8411 0.399994 13.1999 6.04121 13.1999 13H19.1999ZM25.7999 6.39999C29.445 6.39999 32.3999 9.35491 32.3999 13H38.3999C38.3999 6.0412 32.7587 0.399994 25.7999 0.399994V6.39999ZM6.3999 54.6003L6.40098 44.9992L0.400982 44.9986L0.399902 54.5996L6.3999 54.6003ZM13.001 32.4C6.04275 32.4 0.401764 38.0403 0.400982 44.9986L6.40098 44.9992C6.40139 41.3545 9.35619 38.4 13.001 38.4V32.4ZM13.001 38.4H30.5999V32.4H13.001V38.4ZM54.5999 35.6H47.3999V41.6H54.5999V35.6ZM47.3999 35.6H40.1999V41.6H47.3999V35.6ZM50.3999 45.7996V38.6H44.3999V45.7996H50.3999ZM50.3999 38.6V31.3996H44.3999V38.6H50.3999Z" fill="#5A5A5A"/>
</svg>
