<svg width="67" height="78" viewBox="0 0 67 78" fill="none" xmlns="http://www.w3.org/2000/svg">
<g clip-path="url(#clip0_4048_126)">
<path d="M66.2376 14.301C45.0109 11.0332 33.5003 0.5 33.5003 0.5C33.5003 0.5 21.9898 11.0332 0.763102 14.301C0.763102 14.301 -4.63239 62.2459 33.5003 77.5C71.6331 62.2459 66.2376 14.301 66.2376 14.301Z" fill="url(#paint0_linear_4048_126)"/>
<g opacity="0.72">
<path d="M66.2376 14.301C45.0109 11.0332 33.5003 0.5 33.5003 0.5C33.5003 0.5 21.9898 11.0332 0.763102 14.301C0.763102 14.301 -4.63239 62.2459 33.5003 77.5C71.6331 62.2459 66.2376 14.301 66.2376 14.301ZM61.2273 39.627C57.0202 56.5392 47.6952 68.1787 33.5003 74.2412C19.3054 68.1757 9.97754 56.5362 5.77342 39.627C3.33693 29.8295 3.38172 20.9031 3.57581 16.8816C19.2427 14.0026 29.4246 7.43368 33.5033 4.36176C37.5821 7.43669 47.7609 14.0056 63.4309 16.8816C63.622 20.9001 63.6697 29.8295 61.2332 39.627H61.2273Z" fill="url(#paint1_linear_4048_126)"/>
<g style="mix-blend-mode:screen" opacity="0.68">
<path d="M66.2376 14.301C45.0109 11.0332 33.5003 0.5 33.5003 0.5C33.5003 0.5 21.9898 11.0332 0.763102 14.301C0.763102 14.301 -4.63239 62.2459 33.5003 77.5C71.6331 62.2459 66.2376 14.301 66.2376 14.301ZM61.2273 39.627C57.0202 56.5392 47.6952 68.1787 33.5003 74.2412C19.3054 68.1757 9.97754 56.5362 5.77342 39.627C3.33693 29.8295 3.38172 20.9031 3.57581 16.8816C19.2427 14.0026 29.4246 7.43368 33.5033 4.36176C37.5821 7.43669 47.7609 14.0056 63.4309 16.8816C63.622 20.9001 63.6697 29.8295 61.2332 39.627H61.2273Z" fill="white"/>
</g>
</g>
<path d="M33.5 74.2442C19.3051 68.1787 9.97724 56.5392 5.77312 39.63C3.33664 29.8324 3.38143 20.9061 3.57551 16.8846C19.2424 14.0056 29.4243 7.43667 33.503 4.36475C37.5817 7.43968 47.7606 14.0086 63.4306 16.8846C63.6217 20.9031 63.6694 29.8324 61.2329 39.63C57.0258 56.5422 47.7009 68.1817 33.506 74.2442H33.5Z" fill="url(#paint2_linear_4048_126)"/>
<path opacity="0.64" d="M33.5 4.36182C37.5787 7.43675 47.7576 14.0057 63.4275 16.8816C63.6186 20.9001 63.6664 29.8295 61.2299 39.6271C57.0228 56.5392 47.6979 68.1788 33.503 74.2412V4.36182H33.5Z" fill="url(#paint3_linear_4048_126)"/>
<g filter="url(#filter0_d_4048_126)">
<path d="M29.9618 40.0854L21.2788 30.7762C20.9892 30.4657 20.4846 30.5471 20.3024 30.9329L15.9729 40.212L29.3915 53.7598C29.6244 53.995 30.0036 53.995 30.2365 53.7598L52.974 30.8063C53.1173 30.6616 53.177 30.4566 53.1352 30.2577L52.2544 25.9678C52.1678 25.5488 51.6901 25.3498 51.3377 25.591L29.9648 40.0884L29.9618 40.0854Z" fill="white"/>
</g>
</g>
<defs>
<filter id="filter0_d_4048_126" x="10.9729" y="20.4868" width="57.1753" height="48.4495" filterUnits="userSpaceOnUse" color-interpolation-filters="sRGB">
<feFlood flood-opacity="0" result="BackgroundImageFix"/>
<feColorMatrix in="SourceAlpha" type="matrix" values="0 0 0 0 0 0 0 0 0 0 0 0 0 0 0 0 0 0 127 0" result="hardAlpha"/>
<feOffset dx="5" dy="5"/>
<feGaussianBlur stdDeviation="5"/>
<feColorMatrix type="matrix" values="0 0 0 0 0.164706 0 0 0 0 0.239216 0 0 0 0 0.184314 0 0 0 0.75 0"/>
<feBlend mode="normal" in2="BackgroundImageFix" result="effect1_dropShadow_4048_126"/>
<feBlend mode="normal" in="SourceGraphic" in2="effect1_dropShadow_4048_126" result="shape"/>
</filter>
<linearGradient id="paint0_linear_4048_126" x1="13.3187" y1="8.323" x2="55.4589" y2="55.4328" gradientUnits="userSpaceOnUse">
<stop stop-color="#94D0C4"/>
<stop offset="0.5" stop-color="#00AEA4"/>
<stop offset="1" stop-color="#00997F"/>
</linearGradient>
<linearGradient id="paint1_linear_4048_126" x1="13.3187" y1="8.323" x2="55.4589" y2="55.4328" gradientUnits="userSpaceOnUse">
<stop stop-color="#94D0C4"/>
<stop offset="0.5" stop-color="#00AEA4"/>
<stop offset="1" stop-color="#00997F"/>
</linearGradient>
<linearGradient id="paint2_linear_4048_126" x1="3.4919" y1="39.3014" x2="63.5052" y2="39.3014" gradientUnits="userSpaceOnUse">
<stop stop-color="#94D0C4"/>
<stop offset="0.5" stop-color="#00AEA4"/>
<stop offset="1" stop-color="#00997F"/>
</linearGradient>
<linearGradient id="paint3_linear_4048_126" x1="24.7334" y1="35.5815" x2="53.7871" y2="47.5719" gradientUnits="userSpaceOnUse">
<stop stop-color="white" stop-opacity="0.2"/>
<stop offset="0.5" stop-color="#00AEA4" stop-opacity="0.4"/>
<stop offset="1" stop-color="#006C7F"/>
</linearGradient>
<clipPath id="clip0_4048_126">
<rect width="66" height="77" fill="white" transform="translate(0.5 0.5)"/>
</clipPath>
</defs>
</svg>
