<svg width="225" height="156" viewBox="0 0 225 156" fill="none" xmlns="http://www.w3.org/2000/svg">
<g clip-path="url(#clip0_4048_124)">
<path d="M145.238 14.301C124.011 11.0332 112.5 0.5 112.5 0.5C112.5 0.5 100.99 11.0332 79.7631 14.301C79.7631 14.301 74.3676 62.2459 112.5 77.5C150.633 62.2459 145.238 14.301 145.238 14.301Z" fill="url(#paint0_linear_4048_124)"/>
<g opacity="0.72">
<path d="M145.238 14.301C124.011 11.0332 112.5 0.5 112.5 0.5C112.5 0.5 100.99 11.0332 79.7631 14.301C79.7631 14.301 74.3676 62.2459 112.5 77.5C150.633 62.2459 145.238 14.301 145.238 14.301ZM140.227 39.627C136.02 56.5392 126.695 68.1787 112.5 74.2412C98.3054 68.1757 88.9775 56.5362 84.7734 39.627C82.3369 29.8295 82.3817 20.9031 82.5758 16.8816C98.2427 14.0026 108.425 7.43368 112.503 4.36176C116.582 7.43669 126.761 14.0056 142.431 16.8816C142.622 20.9001 142.67 29.8295 140.233 39.627H140.227Z" fill="url(#paint1_linear_4048_124)"/>
<g style="mix-blend-mode:screen" opacity="0.68">
<path d="M145.238 14.301C124.011 11.0332 112.5 0.5 112.5 0.5C112.5 0.5 100.99 11.0332 79.7631 14.301C79.7631 14.301 74.3676 62.2459 112.5 77.5C150.633 62.2459 145.238 14.301 145.238 14.301ZM140.227 39.627C136.02 56.5392 126.695 68.1787 112.5 74.2412C98.3054 68.1757 88.9775 56.5362 84.7734 39.627C82.3369 29.8295 82.3817 20.9031 82.5758 16.8816C98.2427 14.0026 108.425 7.43368 112.503 4.36176C116.582 7.43669 126.761 14.0056 142.431 16.8816C142.622 20.9001 142.67 29.8295 140.233 39.627H140.227Z" fill="white"/>
</g>
</g>
<path d="M112.5 74.2442C98.3051 68.1787 88.9772 56.5392 84.7731 39.63C82.3366 29.8324 82.3814 20.9061 82.5755 16.8846C98.2424 14.0056 108.424 7.43667 112.503 4.36475C116.582 7.43968 126.761 14.0086 142.431 16.8846C142.622 20.9031 142.669 29.8324 140.233 39.63C136.026 56.5422 126.701 68.1817 112.506 74.2442H112.5Z" fill="url(#paint2_linear_4048_124)"/>
<path opacity="0.64" d="M112.5 4.36182C116.579 7.43675 126.758 14.0057 142.428 16.8816C142.619 20.9001 142.666 29.8295 140.23 39.6271C136.023 56.5392 126.698 68.1788 112.503 74.2412V4.36182H112.5Z" fill="url(#paint3_linear_4048_124)"/>
<g filter="url(#filter0_d_4048_124)">
<path d="M108.962 40.0854L100.279 30.7762C99.9892 30.4657 99.4846 30.5471 99.3024 30.9329L94.9729 40.212L108.391 53.7598C108.624 53.995 109.004 53.995 109.236 53.7598L131.974 30.8063C132.117 30.6616 132.177 30.4566 132.135 30.2577L131.254 25.9678C131.168 25.5488 130.69 25.3498 130.338 25.591L108.965 40.0884L108.962 40.0854Z" fill="white"/>
</g>
</g>
<g clip-path="url(#clip1_4048_124)">
<path d="M84.5906 92.6123H81.1421V91.8379C81.1421 91.0523 80.9544 90.3714 80.5829 89.799C80.2114 89.2266 79.5848 88.9385 78.7067 88.9385C78.2339 88.9385 77.8511 89.0283 77.5584 89.2079C77.2657 89.3875 77.0293 89.6119 76.8492 89.8813C76.6691 90.1731 76.5452 90.5061 76.4777 90.8764C76.4101 91.2468 76.3764 91.6359 76.3764 92.0399C76.3764 92.5113 76.3914 92.9042 76.4289 93.2184C76.4627 93.5327 76.549 93.8133 76.6841 94.0602C76.8192 94.3071 77.0181 94.5203 77.277 94.6999C77.5359 94.8795 77.8924 95.0591 78.3427 95.2386L80.9807 96.2824C81.7462 96.5742 82.3654 96.9184 82.8382 97.3112C83.311 97.7041 83.6825 98.1605 83.9527 98.6768C84.2004 99.2155 84.3692 99.829 84.4593 100.514C84.5494 101.198 84.5944 101.98 84.5944 102.856C84.5944 103.866 84.4931 104.805 84.2904 105.669C84.0878 106.533 83.7613 107.27 83.311 107.876C82.8382 108.505 82.219 108.999 81.4535 109.358C80.688 109.717 79.7499 109.896 78.6466 109.896C77.8136 109.896 77.0368 109.751 76.3126 109.459C75.5921 109.167 74.9729 108.763 74.4551 108.247C73.9372 107.73 73.5245 107.128 73.2205 106.443C72.9165 105.759 72.7627 105.011 72.7627 104.202V102.923H76.2113V104C76.2113 104.629 76.3989 105.198 76.7704 105.703C77.1419 106.208 77.7686 106.462 78.6466 106.462C79.232 106.462 79.6898 106.38 80.0163 106.211C80.3428 106.043 80.598 105.8 80.7781 105.486C80.9582 105.171 81.067 104.794 81.1008 104.356C81.1346 103.918 81.1496 103.428 81.1496 102.889C81.1496 102.261 81.1271 101.744 81.082 101.34C81.037 100.936 80.9469 100.611 80.8119 100.364C80.6542 100.117 80.4441 99.9151 80.1852 99.7579C79.9263 99.6008 79.581 99.4325 79.1532 99.2529L76.6841 98.2428C75.1981 97.6367 74.1999 96.8324 73.6933 95.8335C73.1867 94.8346 72.9316 93.5813 72.9316 92.0774C72.9316 91.1795 73.0554 90.3265 73.3031 89.5147C73.5507 88.7066 73.9222 88.0107 74.4176 87.4271C74.8904 86.8435 75.4945 86.3758 76.2263 86.0279C76.958 85.68 77.8324 85.5042 78.8455 85.5042C79.7011 85.5042 80.4854 85.6613 81.1946 85.9755C81.9038 86.2898 82.5192 86.7051 83.0371 87.2213C84.0728 88.2988 84.5906 89.5371 84.5906 90.9288V92.6123Z" fill="#5A5A5A"/>
<path d="M87.1573 109.698V85.7021H97.4355V88.9382H90.6059V95.9828H96.5537V99.2189H90.6059V106.264H97.4355V109.702H87.1573V109.698Z" fill="#5A5A5A"/>
<path d="M110.618 102.855V104.337C110.618 105.078 110.476 105.781 110.194 106.443C109.913 107.105 109.522 107.696 109.027 108.213C108.532 108.729 107.95 109.14 107.286 109.443C106.622 109.746 105.905 109.9 105.139 109.9C104.487 109.9 103.822 109.81 103.147 109.631C102.471 109.451 101.864 109.137 101.323 108.688C100.783 108.239 100.336 107.659 99.9873 106.952C99.6383 106.245 99.4619 105.339 99.4619 104.24V91.0258C99.4619 90.2401 99.597 89.5106 99.8672 88.8334C100.137 88.16 100.52 87.5764 101.015 87.0826C101.511 86.5888 102.104 86.1997 102.79 85.9191C103.477 85.6385 104.239 85.4963 105.072 85.4963C106.693 85.4963 108.014 86.0238 109.027 87.0788C109.522 87.5951 109.913 88.2087 110.194 88.9158C110.476 89.6228 110.618 90.3935 110.618 91.224V92.5709H107.17V91.4261C107.17 90.7527 106.978 90.169 106.595 89.6752C106.213 89.1814 105.695 88.9345 105.042 88.9345C104.186 88.9345 103.616 89.2001 103.335 89.7276C103.053 90.2551 102.91 90.9248 102.91 91.7328V104C102.91 104.696 103.064 105.28 103.368 105.751C103.672 106.222 104.22 106.458 105.008 106.458C105.233 106.458 105.477 106.421 105.736 106.342C105.995 106.263 106.239 106.136 106.464 105.953C106.667 105.773 106.836 105.526 106.971 105.212C107.106 104.898 107.173 104.505 107.173 104.034V102.855H110.622H110.618Z" fill="#5A5A5A"/>
<path d="M124.581 85.7021V104.307C124.581 105.093 124.439 105.818 124.157 106.481C123.876 107.143 123.474 107.734 122.956 108.25C122.439 108.766 121.842 109.17 121.167 109.462C120.491 109.754 119.771 109.9 119.001 109.9C118.232 109.9 117.519 109.754 116.855 109.462C116.191 109.17 115.598 108.766 115.08 108.25C114.562 107.734 114.157 107.143 113.864 106.481C113.571 105.818 113.425 105.093 113.425 104.307V85.7021H116.874V103.97C116.874 104.823 117.076 105.452 117.482 105.856C117.887 106.26 118.393 106.462 119.001 106.462C119.609 106.462 120.116 106.26 120.521 105.856C120.926 105.452 121.129 104.823 121.129 103.97V85.7021H124.578H124.581Z" fill="#5A5A5A"/>
<path d="M127.823 109.698V85.7021H133.366C137.422 85.7021 139.449 88.0516 139.449 92.7467C139.449 94.1609 139.227 95.3655 138.788 96.3532C138.349 97.3409 137.576 98.1377 136.473 98.7475L140.192 109.702H136.54L133.328 99.4546H131.268V109.702H127.82L127.823 109.698ZM131.272 88.9382V96.4206H133.231C133.839 96.4206 134.323 96.3382 134.683 96.1699C135.043 96.0015 135.325 95.7584 135.527 95.4441C135.707 95.1299 135.831 94.7408 135.899 94.2806C135.966 93.8204 136 93.2855 136 92.6794C136 92.0733 135.966 91.5383 135.899 91.0782C135.831 90.618 135.696 90.2177 135.493 89.881C135.066 89.2525 134.255 88.9382 133.058 88.9382H131.268H131.272Z" fill="#5A5A5A"/>
<path d="M142.226 109.698V85.7021H152.5V88.9382H145.67V95.9828H151.618V99.2189H145.67V106.264H152.5V109.702H142.226V109.698Z" fill="#5A5A5A"/>
<path d="M73.2543 120.195C73.4231 121.333 74.1999 121.834 75.1755 121.834C76.1512 121.834 76.8829 121.318 76.8829 120.319C76.8829 119.387 76.4777 118.991 74.9992 118.523C73.4044 118.022 72.7702 117.513 72.7702 116.383C72.7702 115.253 73.637 114.389 75.0967 114.389C76.7291 114.389 77.4271 115.396 77.5096 116.454H76.7554C76.624 115.568 76.0987 115.029 75.0667 115.029C74.0348 115.029 73.5582 115.526 73.5582 116.316C73.5582 117.105 73.9747 117.449 75.2994 117.853C77.2244 118.445 77.6747 119.167 77.6747 120.24C77.6747 121.565 76.7441 122.47 75.1455 122.47C73.547 122.47 72.6201 121.587 72.5 120.195H73.2543Z" fill="#595757"/>
<path d="M79.2208 120.195C79.3897 121.333 80.1664 121.834 81.1421 121.834C82.1178 121.834 82.8495 121.318 82.8495 120.319C82.8495 119.387 82.4442 118.991 80.9657 118.523C79.3709 118.022 78.7367 117.513 78.7367 116.383C78.7367 115.253 79.6036 114.389 81.0633 114.389C82.6956 114.389 83.3936 115.396 83.4762 116.454H82.7219C82.5906 115.568 82.0652 115.029 81.0333 115.029C80.0013 115.029 79.5248 115.526 79.5248 116.316C79.5248 117.105 79.9413 117.449 81.2659 117.853C83.191 118.445 83.6413 119.167 83.6413 120.24C83.6413 121.565 82.7107 122.47 81.1121 122.47C79.5135 122.47 78.5866 121.587 78.4666 120.195H79.2208Z" fill="#595757"/>
<path d="M84.9884 114.494H85.7389V121.729H89.649L89.5252 122.388H84.9922V114.494H84.9884Z" fill="#595757"/>
<path d="M95.9194 118.568H92.317V121.729H96.2759L96.1671 122.388H91.5778V114.494H96.0995V115.152H92.3208V117.898H95.9232V118.568H95.9194Z" fill="#595757"/>
<path d="M97.5405 122.388V114.494H98.565C102.017 120.386 102.46 121.134 102.614 121.471H102.629C102.558 120.379 102.546 119.11 102.546 117.835V114.494H103.278V122.388H102.351C98.6625 116.035 98.4224 115.586 98.2347 115.246H98.2235C98.2798 116.275 98.2648 117.584 98.2648 119.002V122.388H97.5405Z" fill="#595757"/>
<path d="M110.656 120.158C110.412 121.385 109.612 122.5 107.815 122.5C105.56 122.5 104.689 120.764 104.689 118.366C104.689 116.342 105.646 114.382 107.867 114.382C109.571 114.382 110.438 115.392 110.622 116.757H109.853C109.635 115.736 109.057 115.04 107.841 115.04C106.19 115.04 105.477 116.615 105.477 118.37C105.477 120.124 106.021 121.838 107.845 121.838C109.065 121.838 109.616 121.157 109.898 120.154H110.659L110.656 120.158Z" fill="#595757"/>
<path d="M112.742 118.677V122.388H111.988V114.494H114.637C115.999 114.494 116.952 115.167 116.952 116.492C116.952 117.655 116.232 118.16 115.628 118.336C116.472 118.587 116.847 119.249 116.847 120.356V120.476C116.847 121.217 116.855 121.916 116.96 122.388H116.202C116.097 122.077 116.074 121.273 116.074 120.502V120.364C116.074 119.167 115.639 118.68 114.239 118.68H112.746L112.742 118.677ZM112.742 118.033H114.296C115.425 118.033 116.164 117.708 116.164 116.514C116.164 115.627 115.583 115.13 114.532 115.13H112.742V118.029V118.033Z" fill="#595757"/>
<path d="M120.052 122.388V119.223C120.052 119.152 120.022 119.062 119.992 119.028L117.388 114.494H118.247C118.945 115.751 120.142 117.842 120.461 118.422C121.106 117.277 121.992 115.725 122.683 114.494H123.489L120.836 119.066C120.799 119.107 120.795 119.163 120.795 119.238V122.384H120.044L120.052 122.388Z" fill="#595757"/>
<path d="M124.244 114.494H126.807C128.274 114.494 129.283 115.257 129.283 116.615C129.283 118.134 128.232 118.864 126.679 118.864H125.002V122.388H124.244V114.494ZM125.005 118.216H126.664C127.756 118.216 128.506 117.85 128.506 116.63C128.506 115.613 127.76 115.134 126.664 115.134H125.005V118.216Z" fill="#595757"/>
<path d="M131.97 115.164H129.591V114.494H135.118V115.164H132.732V122.388H131.97V115.164Z" fill="#595757"/>
<path d="M136.77 114.494V122.388H136.019V114.494H136.77Z" fill="#595757"/>
<path d="M144.71 118.385C144.71 120.648 143.67 122.5 141.415 122.5C139.321 122.5 138.195 120.809 138.195 118.4C138.195 116.286 139.276 114.378 141.501 114.378C143.606 114.378 144.71 116.05 144.71 118.385ZM138.983 118.373C138.983 120.326 139.779 121.838 141.464 121.838C143.149 121.838 143.944 120.323 143.944 118.392C143.944 116.462 143.156 115.036 141.479 115.036C139.801 115.036 138.983 116.54 138.983 118.37V118.373Z" fill="#595757"/>
<path d="M146.136 122.388V114.494H147.16C150.613 120.386 151.055 121.134 151.209 121.471H151.224C151.153 120.379 151.142 119.11 151.142 117.835V114.494H151.873V122.388H150.946C147.258 116.035 147.018 115.586 146.83 115.246H146.819C146.875 116.275 146.86 117.584 146.86 119.002V122.388H146.136Z" fill="#595757"/>
</g>
<path d="M14.359 135.628C14.5403 135.537 14.7217 135.52 14.903 135.577C15.0957 135.634 15.2373 135.747 15.328 135.917C15.7247 136.631 15.957 137.05 16.025 137.175C16.1157 137.345 16.1327 137.532 16.076 137.736C16.0193 137.929 15.9003 138.065 15.719 138.144C15.5377 138.223 15.3507 138.229 15.158 138.161C14.9767 138.093 14.8407 137.974 14.75 137.804C14.3647 137.101 14.138 136.688 14.07 136.563C13.9793 136.393 13.9623 136.217 14.019 136.036C14.0757 135.855 14.189 135.719 14.359 135.628ZM17.793 135.679C18.1103 136.246 18.3483 136.676 18.507 136.971C18.5977 137.152 18.609 137.339 18.541 137.532C18.4843 137.713 18.3653 137.849 18.184 137.94C18.0027 138.019 17.8157 138.031 17.623 137.974C17.4303 137.906 17.2887 137.781 17.198 137.6C17.0507 137.317 16.8183 136.892 16.501 136.325C16.4103 136.155 16.3877 135.974 16.433 135.781C16.4897 135.588 16.6087 135.452 16.79 135.373C16.9713 135.282 17.1583 135.265 17.351 135.322C17.5437 135.379 17.691 135.498 17.793 135.679ZM5.876 137.175H13.084C13.3107 137.175 13.5033 137.254 13.662 137.413C13.8207 137.572 13.9 137.759 13.9 137.974C13.9 138.201 13.8207 138.393 13.662 138.552C13.5033 138.711 13.3107 138.79 13.084 138.79H5.876C5.64933 138.79 5.45667 138.711 5.298 138.552C5.13933 138.393 5.06 138.201 5.06 137.974C5.06 137.759 5.13933 137.572 5.298 137.413C5.45667 137.254 5.64933 137.175 5.876 137.175ZM3.904 143.38C3.68867 143.38 3.50167 143.301 3.343 143.142C3.18433 142.983 3.105 142.791 3.105 142.564C3.105 142.337 3.17867 142.15 3.326 142.003C3.48467 141.844 3.67733 141.765 3.904 141.765H16.739C16.9657 141.765 17.1583 141.844 17.317 142.003C17.4757 142.162 17.555 142.349 17.555 142.564C17.555 142.791 17.47 142.983 17.3 143.142C17.1413 143.301 16.9543 143.38 16.739 143.38H11.996C11.9053 143.38 11.86 143.425 11.86 143.516C11.8373 145.341 11.4237 146.797 10.619 147.885C9.81433 148.973 8.55633 149.778 6.845 150.299C6.61833 150.367 6.39733 150.339 6.182 150.214C5.978 150.101 5.83633 149.931 5.757 149.704C5.689 149.489 5.706 149.285 5.808 149.092C5.92133 148.888 6.09133 148.746 6.318 148.667C7.62133 148.225 8.55067 147.613 9.106 146.831C9.67267 146.038 9.96733 144.938 9.99 143.533C9.99 143.431 9.939 143.38 9.837 143.38H3.904ZM21.414 144.264C21.1647 144.264 20.955 144.179 20.785 144.009C20.615 143.839 20.53 143.629 20.53 143.38C20.53 143.131 20.615 142.921 20.785 142.751C20.955 142.581 21.1647 142.496 21.414 142.496H33.586C33.8353 142.496 34.045 142.581 34.215 142.751C34.385 142.921 34.47 143.131 34.47 143.38C34.47 143.629 34.385 143.839 34.215 144.009C34.045 144.179 33.8353 144.264 33.586 144.264H21.414ZM39.451 143.839C39.2923 144.009 39.0997 144.1 38.873 144.111C38.6463 144.111 38.448 144.032 38.278 143.873C38.108 143.726 38.0173 143.539 38.006 143.312C37.9947 143.085 38.0683 142.887 38.227 142.717C39.7117 141.062 40.6637 139.119 41.083 136.886C41.1283 136.648 41.2417 136.455 41.423 136.308C41.6043 136.161 41.814 136.093 42.052 136.104C42.2787 136.127 42.4657 136.229 42.613 136.41C42.7717 136.58 42.834 136.778 42.8 137.005C42.7887 137.062 42.766 137.152 42.732 137.277C42.7093 137.402 42.6923 137.498 42.681 137.566C42.6583 137.645 42.698 137.685 42.8 137.685H49.583C49.8437 137.685 50.0703 137.781 50.263 137.974C50.4557 138.155 50.552 138.376 50.552 138.637C50.5067 142.286 49.651 145.023 47.985 146.848C46.319 148.661 43.6783 149.772 40.063 150.18C39.8363 150.203 39.6267 150.146 39.434 150.01C39.2527 149.874 39.145 149.693 39.111 149.466C39.077 149.251 39.128 149.052 39.264 148.871C39.4 148.69 39.5757 148.588 39.791 148.565C43.1457 148.146 45.4973 147.092 46.846 145.403C46.914 145.335 46.897 145.278 46.795 145.233C45.2197 144.44 43.7973 143.754 42.528 143.176C42.3127 143.074 42.1653 142.915 42.086 142.7C42.0067 142.473 42.0237 142.252 42.137 142.037C42.2503 141.822 42.426 141.674 42.664 141.595C42.9133 141.516 43.1513 141.527 43.378 141.629C44.7607 142.252 46.1943 142.938 47.679 143.686C47.7583 143.731 47.8207 143.709 47.866 143.618C48.3307 142.439 48.597 141.051 48.665 139.453C48.665 139.351 48.614 139.3 48.512 139.3H42.511C42.4543 139.3 42.409 139.294 42.375 139.283C42.2957 139.272 42.2333 139.306 42.188 139.385C41.5987 141.028 40.6863 142.513 39.451 143.839ZM62.367 145.794C61.007 145.794 60.327 146.264 60.327 147.205C60.327 148.282 61.007 148.82 62.367 148.82C63.0243 148.82 63.5003 148.667 63.795 148.361C64.0897 148.055 64.237 147.556 64.237 146.865V146.491C64.237 146.4 64.1917 146.327 64.101 146.27C63.523 145.953 62.945 145.794 62.367 145.794ZM62.452 150.35C61.2393 150.35 60.2987 150.072 59.63 149.517C58.9613 148.973 58.627 148.202 58.627 147.205C58.627 146.276 58.9557 145.55 59.613 145.029C60.2817 144.496 61.228 144.23 62.452 144.23C63.0073 144.23 63.5513 144.326 64.084 144.519C64.186 144.542 64.237 144.513 64.237 144.434V140.558C64.237 140.456 64.186 140.405 64.084 140.405H59.902C59.6867 140.405 59.5053 140.331 59.358 140.184C59.2107 140.037 59.137 139.855 59.137 139.64C59.137 139.425 59.2107 139.243 59.358 139.096C59.5053 138.949 59.6867 138.875 59.902 138.875H64.084C64.186 138.875 64.237 138.824 64.237 138.722V137.005C64.237 136.767 64.3163 136.569 64.475 136.41C64.645 136.24 64.849 136.155 65.087 136.155C65.325 136.155 65.5233 136.24 65.682 136.41C65.852 136.569 65.937 136.767 65.937 137.005V138.722C65.937 138.824 65.9823 138.875 66.073 138.875H68.062C68.2773 138.875 68.4587 138.949 68.606 139.096C68.7533 139.243 68.827 139.425 68.827 139.64C68.827 139.855 68.7533 140.037 68.606 140.184C68.4587 140.331 68.2773 140.405 68.062 140.405H66.073C65.9823 140.405 65.937 140.456 65.937 140.558V145.42C65.937 145.533 65.971 145.613 66.039 145.658C66.6283 146.1 67.382 146.769 68.3 147.664C68.4587 147.823 68.538 148.021 68.538 148.259C68.538 148.486 68.4587 148.678 68.3 148.837C68.1413 148.996 67.943 149.069 67.705 149.058C67.4783 149.047 67.2857 148.962 67.127 148.803C67.0817 148.758 66.702 148.395 65.988 147.715C65.9313 147.681 65.8917 147.698 65.869 147.766C65.597 149.489 64.458 150.35 62.452 150.35ZM56.213 150.265C55.975 150.299 55.754 150.248 55.55 150.112C55.346 149.976 55.2213 149.789 55.176 149.551C54.7453 147.704 54.53 145.647 54.53 143.38C54.53 141.113 54.7453 139.056 55.176 137.209C55.2213 136.971 55.346 136.784 55.55 136.648C55.754 136.512 55.975 136.461 56.213 136.495C56.4397 136.518 56.6153 136.625 56.74 136.818C56.8647 136.999 56.9043 137.198 56.859 137.413C56.4397 139.272 56.23 141.261 56.23 143.38C56.23 145.499 56.4397 147.488 56.859 149.347C56.9043 149.562 56.8647 149.761 56.74 149.942C56.6153 150.135 56.4397 150.242 56.213 150.265ZM72.635 150.265C72.4763 150.435 72.278 150.52 72.04 150.52C71.802 150.52 71.598 150.435 71.428 150.265C71.2693 150.106 71.19 149.908 71.19 149.67V137.379C71.19 137.118 71.2863 136.892 71.479 136.699C71.6717 136.506 71.8983 136.41 72.159 136.41H75.066C75.3267 136.41 75.5533 136.506 75.746 136.699C75.9387 136.892 76.035 137.118 76.035 137.379V148.531C76.035 148.792 75.9387 149.018 75.746 149.211C75.5533 149.404 75.3267 149.5 75.066 149.5H73.026C72.9353 149.5 72.89 149.545 72.89 149.636V149.67C72.89 149.908 72.805 150.106 72.635 150.265ZM72.89 138.127V141.833C72.89 141.935 72.941 141.986 73.043 141.986H74.284C74.3747 141.986 74.42 141.935 74.42 141.833V138.127C74.42 138.025 74.3747 137.974 74.284 137.974H73.043C72.941 137.974 72.89 138.025 72.89 138.127ZM72.89 143.652V147.834C72.89 147.925 72.941 147.97 73.043 147.97H74.284C74.3747 147.97 74.42 147.925 74.42 147.834V143.652C74.42 143.561 74.3747 143.516 74.284 143.516H73.043C72.941 143.516 72.89 143.561 72.89 143.652ZM77.31 142.105C77.1173 142.105 76.9473 142.031 76.8 141.884C76.664 141.737 76.596 141.567 76.596 141.374C76.596 141.181 76.664 141.017 76.8 140.881C76.9473 140.734 77.1173 140.66 77.31 140.66H78.449C78.5397 140.66 78.5737 140.615 78.551 140.524C78.3357 139.799 78.1147 139.124 77.888 138.501C77.854 138.41 77.7917 138.365 77.701 138.365H77.463C77.259 138.365 77.0833 138.291 76.936 138.144C76.7887 137.997 76.715 137.821 76.715 137.617C76.715 137.413 76.7887 137.243 76.936 137.107C77.0833 136.96 77.259 136.886 77.463 136.886H80.302C80.404 136.886 80.455 136.835 80.455 136.733V136.24C80.455 135.991 80.5457 135.775 80.727 135.594C80.9197 135.401 81.1407 135.305 81.39 135.305C81.6393 135.305 81.8547 135.401 82.036 135.594C82.2287 135.775 82.325 135.991 82.325 136.24V136.733C82.325 136.835 82.376 136.886 82.478 136.886H85.317C85.521 136.886 85.6967 136.96 85.844 137.107C85.9913 137.243 86.065 137.413 86.065 137.617C86.065 137.821 85.9913 137.997 85.844 138.144C85.6967 138.291 85.521 138.365 85.317 138.365H85.079C84.977 138.365 84.9147 138.41 84.892 138.501C84.7333 139.158 84.5237 139.833 84.263 140.524C84.2403 140.615 84.2687 140.66 84.348 140.66H85.504C85.6967 140.66 85.8667 140.734 86.014 140.881C86.1613 141.017 86.235 141.181 86.235 141.374C86.235 141.567 86.1613 141.737 86.014 141.884C85.8667 142.031 85.6967 142.105 85.504 142.105H77.31ZM79.843 138.365C79.7523 138.365 79.7183 138.41 79.741 138.501C79.911 138.977 80.1263 139.651 80.387 140.524C80.4097 140.615 80.472 140.66 80.574 140.66H82.206C82.2967 140.66 82.359 140.615 82.393 140.524C82.6877 139.776 82.9143 139.107 83.073 138.518C83.0957 138.416 83.0617 138.365 82.971 138.365H79.843ZM84.756 143.074C85.0167 143.074 85.2433 143.17 85.436 143.363C85.6287 143.556 85.725 143.782 85.725 144.043V150.027C85.725 150.288 85.6343 150.503 85.453 150.673C85.283 150.854 85.0677 150.945 84.807 150.945H84.484C84.3253 150.945 84.1893 150.883 84.076 150.758C83.9627 150.645 83.906 150.509 83.906 150.35C83.906 150.293 83.872 150.265 83.804 150.265H78.891C78.823 150.265 78.789 150.293 78.789 150.35C78.789 150.509 78.7323 150.645 78.619 150.758C78.5057 150.883 78.3697 150.945 78.211 150.945H77.905C77.6557 150.945 77.4403 150.854 77.259 150.673C77.089 150.503 77.004 150.293 77.004 150.044V144.043C77.004 143.782 77.1003 143.556 77.293 143.363C77.4857 143.17 77.7123 143.074 77.973 143.074H84.756ZM83.906 148.667V147.528C83.906 147.426 83.855 147.375 83.753 147.375H78.942C78.84 147.375 78.789 147.426 78.789 147.528V148.667C78.789 148.769 78.84 148.82 78.942 148.82H83.753C83.855 148.82 83.906 148.769 83.906 148.667ZM83.906 145.828V144.706C83.906 144.615 83.855 144.57 83.753 144.57H78.942C78.84 144.57 78.789 144.615 78.789 144.706V145.828C78.789 145.919 78.84 145.964 78.942 145.964H83.753C83.855 145.964 83.906 145.919 83.906 145.828ZM100.396 136.155C100.657 136.155 100.883 136.251 101.076 136.444C101.269 136.637 101.365 136.863 101.365 137.124V140.422C101.365 140.683 101.269 140.909 101.076 141.102C100.883 141.283 100.657 141.374 100.396 141.374H91.454H90.604C90.3433 141.374 90.1167 141.283 89.924 141.102C89.7313 140.909 89.635 140.683 89.635 140.422V137.124C89.635 136.863 89.7313 136.637 89.924 136.444C90.1167 136.251 90.3433 136.155 90.604 136.155H100.396ZM99.546 139.878V137.787C99.546 137.685 99.495 137.634 99.393 137.634H91.607C91.505 137.634 91.454 137.685 91.454 137.787V139.878C91.454 139.969 91.505 140.014 91.607 140.014H99.393C99.495 140.014 99.546 139.969 99.546 139.878ZM88.615 143.941C88.3997 143.941 88.2183 143.867 88.071 143.72C87.9237 143.573 87.85 143.391 87.85 143.176C87.85 142.961 87.9237 142.779 88.071 142.632C88.2183 142.485 88.3997 142.411 88.615 142.411H102.385C102.6 142.411 102.782 142.485 102.929 142.632C103.076 142.779 103.15 142.961 103.15 143.176C103.15 143.391 103.076 143.573 102.929 143.72C102.782 143.867 102.6 143.941 102.385 143.941H92.831C92.729 143.941 92.6667 143.992 92.644 144.094C92.6213 144.196 92.542 144.474 92.406 144.927C92.3833 145.029 92.4173 145.08 92.508 145.08H100.583C100.844 145.08 101.059 145.176 101.229 145.369C101.399 145.562 101.473 145.783 101.45 146.032C101.359 146.95 101.263 147.692 101.161 148.259C101.07 148.814 100.963 149.273 100.838 149.636C100.725 149.999 100.566 150.259 100.362 150.418C100.158 150.588 99.9483 150.696 99.733 150.741C99.5177 150.798 99.2117 150.826 98.815 150.826C98.3277 150.826 97.2567 150.792 95.602 150.724C95.3753 150.713 95.1827 150.628 95.024 150.469C94.8653 150.31 94.7803 150.123 94.769 149.908C94.7577 149.693 94.8257 149.511 94.973 149.364C95.1203 149.217 95.3017 149.149 95.517 149.16C96.7297 149.217 97.6307 149.245 98.22 149.245C98.458 149.245 98.6223 149.234 98.713 149.211C98.815 149.188 98.9113 149.086 99.002 148.905C99.104 148.712 99.1777 148.469 99.223 148.174C99.2797 147.868 99.3477 147.381 99.427 146.712C99.4497 146.621 99.4043 146.576 99.291 146.576H92.015C91.913 146.576 91.845 146.616 91.811 146.695C91.709 146.967 91.556 147.352 91.352 147.851C91.25 148.1 91.0743 148.287 90.825 148.412C90.587 148.537 90.3377 148.565 90.077 148.497C89.839 148.44 89.669 148.304 89.567 148.089C89.465 147.862 89.4593 147.636 89.55 147.409C90.026 146.253 90.4227 145.137 90.74 144.06C90.7627 143.981 90.7287 143.941 90.638 143.941H88.615ZM106.023 144.57C105.864 144.751 105.672 144.825 105.445 144.791C105.23 144.757 105.065 144.638 104.952 144.434C104.816 144.185 104.765 143.924 104.799 143.652C104.844 143.38 104.963 143.142 105.156 142.938C106.754 141.17 107.927 139.017 108.675 136.478C108.743 136.251 108.879 136.076 109.083 135.951C109.287 135.815 109.502 135.77 109.729 135.815C109.956 135.86 110.131 135.979 110.256 136.172C110.381 136.353 110.42 136.552 110.375 136.767C110.08 137.957 109.678 139.068 109.168 140.099C109.134 140.178 109.117 140.269 109.117 140.371V150.112C109.117 150.361 109.026 150.577 108.845 150.758C108.664 150.939 108.448 151.03 108.199 151.03C107.95 151.03 107.734 150.939 107.553 150.758C107.372 150.577 107.281 150.361 107.281 150.112V143.023C107.281 143 107.27 142.989 107.247 142.989C107.236 142.978 107.224 142.978 107.213 142.989C106.828 143.567 106.431 144.094 106.023 144.57ZM114.2 150.707C113.293 150.65 112.727 150.486 112.5 150.214C112.285 149.942 112.177 149.279 112.177 148.225V136.852C112.177 136.591 112.262 136.376 112.432 136.206C112.613 136.025 112.829 135.934 113.078 135.934C113.339 135.934 113.554 136.025 113.724 136.206C113.905 136.387 113.996 136.603 113.996 136.852V141.102C113.996 141.193 114.041 141.215 114.132 141.17C115.537 140.445 116.999 139.459 118.518 138.212C118.699 138.065 118.903 137.997 119.13 138.008C119.368 138.019 119.561 138.116 119.708 138.297C119.867 138.478 119.935 138.682 119.912 138.909C119.901 139.136 119.804 139.323 119.623 139.47C117.776 140.977 115.945 142.162 114.132 143.023C114.041 143.057 113.996 143.125 113.996 143.227V148.004C113.996 148.537 114.024 148.854 114.081 148.956C114.149 149.058 114.347 149.126 114.676 149.16C115.197 149.205 115.622 149.228 115.951 149.228C116.427 149.228 116.852 149.205 117.226 149.16C117.419 149.137 117.555 149.12 117.634 149.109C117.725 149.086 117.821 149.03 117.923 148.939C118.036 148.848 118.11 148.746 118.144 148.633C118.178 148.52 118.218 148.316 118.263 148.021C118.308 147.726 118.337 147.409 118.348 147.069C118.371 146.729 118.393 146.247 118.416 145.624C118.427 145.386 118.524 145.188 118.705 145.029C118.886 144.87 119.096 144.802 119.334 144.825C119.583 144.848 119.787 144.955 119.946 145.148C120.105 145.329 120.178 145.545 120.167 145.794C120.099 147.335 119.997 148.418 119.861 149.041C119.725 149.664 119.521 150.078 119.249 150.282C118.977 150.486 118.49 150.622 117.787 150.69C117.288 150.747 116.688 150.775 115.985 150.775C115.52 150.775 114.925 150.752 114.2 150.707ZM123.465 139.81C123.25 139.81 123.068 139.736 122.921 139.589C122.774 139.442 122.7 139.26 122.7 139.045C122.7 138.83 122.774 138.648 122.921 138.501C123.068 138.354 123.25 138.28 123.465 138.28C125.324 138.28 127.59 138.24 130.265 138.161C130.367 138.161 130.407 138.11 130.384 138.008C130.316 137.509 130.271 137.124 130.248 136.852C130.225 136.614 130.288 136.41 130.435 136.24C130.594 136.059 130.792 135.957 131.03 135.934C131.257 135.923 131.455 135.996 131.625 136.155C131.806 136.314 131.908 136.506 131.931 136.733C131.954 137.05 131.999 137.464 132.067 137.974C132.09 138.065 132.141 138.11 132.22 138.11C133.025 138.087 134.13 138.042 135.535 137.974C135.75 137.963 135.932 138.031 136.079 138.178C136.226 138.314 136.306 138.49 136.317 138.705C136.328 138.92 136.266 139.107 136.13 139.266C135.994 139.413 135.818 139.493 135.603 139.504C134.9 139.538 133.875 139.578 132.526 139.623C132.424 139.623 132.384 139.668 132.407 139.759C132.724 141.085 133.229 142.326 133.92 143.482C134.056 143.697 134.09 143.93 134.022 144.179C133.965 144.428 133.829 144.61 133.614 144.723C133.115 144.995 132.583 144.978 132.016 144.672C130.917 144.094 129.766 143.805 128.565 143.805C127.579 143.805 126.808 144.003 126.253 144.4C125.698 144.797 125.42 145.335 125.42 146.015C125.42 147.828 126.95 148.735 130.01 148.735C130.928 148.735 132.022 148.639 133.291 148.446C133.506 148.412 133.705 148.457 133.886 148.582C134.067 148.695 134.181 148.86 134.226 149.075C134.271 149.29 134.232 149.483 134.107 149.653C133.982 149.834 133.812 149.942 133.597 149.976C132.407 150.169 131.211 150.265 130.01 150.265C127.811 150.265 126.196 149.863 125.165 149.058C124.145 148.253 123.635 147.211 123.635 145.93C123.635 144.819 124.066 143.935 124.927 143.278C125.788 142.609 126.973 142.275 128.48 142.275C129.613 142.275 130.73 142.513 131.829 142.989H131.863V142.955C131.398 142.094 131.019 141.051 130.724 139.827C130.701 139.736 130.639 139.691 130.537 139.691C127.76 139.77 125.403 139.81 123.465 139.81ZM143.083 136.24C143.253 136.07 143.457 135.985 143.695 135.985C143.933 135.985 144.131 136.07 144.29 136.24C144.46 136.399 144.545 136.597 144.545 136.835V140.728C144.545 140.751 144.556 140.768 144.579 140.779C144.613 140.79 144.641 140.785 144.664 140.762C145.854 139.697 146.8 138.96 147.503 138.552C148.206 138.144 148.835 137.94 149.39 137.94C150.138 137.94 150.671 138.195 150.988 138.705C151.305 139.215 151.464 140.122 151.464 141.425C151.464 142.116 151.396 142.898 151.26 143.771C151.124 144.666 151.056 145.443 151.056 146.1C151.056 146.621 151.09 147.029 151.158 147.324C151.237 147.607 151.322 147.789 151.413 147.868C151.504 147.936 151.623 147.97 151.77 147.97C152.121 147.97 152.626 147.675 153.283 147.086C153.43 146.95 153.606 146.888 153.81 146.899C154.014 146.91 154.173 146.995 154.286 147.154C154.411 147.335 154.467 147.539 154.456 147.766C154.445 147.981 154.36 148.163 154.201 148.31C153.714 148.752 153.209 149.103 152.688 149.364C152.167 149.625 151.702 149.755 151.294 149.755C150.58 149.755 150.059 149.494 149.73 148.973C149.413 148.44 149.254 147.539 149.254 146.27C149.254 145.681 149.328 144.899 149.475 143.924C149.622 142.983 149.696 142.207 149.696 141.595C149.696 141.085 149.656 140.688 149.577 140.405C149.509 140.11 149.424 139.923 149.322 139.844C149.231 139.765 149.112 139.725 148.965 139.725C148.432 139.725 146.999 140.813 144.664 142.989C144.585 143.068 144.545 143.153 144.545 143.244V149.755C144.545 149.993 144.46 150.191 144.29 150.35C144.131 150.52 143.933 150.605 143.695 150.605C143.457 150.605 143.253 150.52 143.083 150.35C142.924 150.191 142.845 149.993 142.845 149.755V144.859C142.845 144.836 142.828 144.819 142.794 144.808C142.771 144.785 142.754 144.785 142.743 144.808C142.278 145.261 141.502 146.032 140.414 147.12C140.255 147.279 140.063 147.358 139.836 147.358C139.621 147.358 139.434 147.279 139.275 147.12C139.116 146.961 139.037 146.774 139.037 146.559C139.037 146.332 139.111 146.14 139.258 145.981C140.584 144.644 141.746 143.499 142.743 142.547C142.811 142.479 142.845 142.4 142.845 142.309V140.388C142.845 140.286 142.794 140.235 142.692 140.235H139.785C139.57 140.235 139.388 140.161 139.241 140.014C139.094 139.867 139.02 139.685 139.02 139.47C139.02 139.255 139.094 139.073 139.241 138.926C139.388 138.779 139.57 138.705 139.785 138.705H142.692C142.794 138.705 142.845 138.654 142.845 138.552V136.835C142.845 136.597 142.924 136.399 143.083 136.24ZM157.363 139.181C157.148 139.181 156.961 139.102 156.802 138.943C156.643 138.784 156.564 138.592 156.564 138.365C156.564 138.138 156.638 137.951 156.785 137.804C156.944 137.645 157.131 137.566 157.346 137.566C161.471 137.543 165.557 137.441 169.603 137.26C169.83 137.249 170.022 137.322 170.181 137.481C170.351 137.628 170.442 137.81 170.453 138.025C170.464 138.252 170.396 138.45 170.249 138.62C170.102 138.79 169.915 138.892 169.688 138.926C167.115 139.266 165.183 139.94 163.891 140.949C162.61 141.958 161.97 143.153 161.97 144.536C161.97 145.749 162.378 146.712 163.194 147.426C164.021 148.129 165.115 148.48 166.475 148.48C166.849 148.48 167.28 148.452 167.767 148.395C167.994 148.372 168.198 148.435 168.379 148.582C168.56 148.718 168.662 148.894 168.685 149.109C168.708 149.336 168.651 149.54 168.515 149.721C168.379 149.914 168.198 150.021 167.971 150.044C167.461 150.112 166.934 150.146 166.39 150.146C164.463 150.146 162.928 149.653 161.783 148.667C160.638 147.681 160.066 146.361 160.066 144.706C160.066 143.527 160.429 142.451 161.154 141.476C161.891 140.501 162.956 139.691 164.35 139.045C164.361 139.045 164.367 139.039 164.367 139.028C164.367 139.017 164.356 139.011 164.333 139.011C162.078 139.102 159.754 139.158 157.363 139.181ZM185.753 147.494C185.651 144.321 185.045 141.442 183.934 138.858C183.843 138.643 183.843 138.433 183.934 138.229C184.025 138.014 184.178 137.872 184.393 137.804C184.62 137.725 184.846 137.736 185.073 137.838C185.3 137.94 185.464 138.099 185.566 138.314C186.779 140.977 187.436 144.043 187.538 147.511C187.549 147.76 187.464 147.97 187.283 148.14C187.113 148.31 186.903 148.395 186.654 148.395C186.405 148.395 186.195 148.31 186.025 148.14C185.855 147.959 185.764 147.743 185.753 147.494ZM177.61 150.18C176.681 150.18 175.825 149.534 175.043 148.242C174.261 146.95 173.87 145.386 173.87 143.55C173.87 141.85 174.063 140.173 174.448 138.518C174.505 138.269 174.641 138.076 174.856 137.94C175.071 137.793 175.304 137.736 175.553 137.77C175.78 137.793 175.955 137.9 176.08 138.093C176.216 138.286 176.256 138.495 176.199 138.722C175.836 140.331 175.655 141.941 175.655 143.55C175.655 144.91 175.887 146.06 176.352 147.001C176.817 147.93 177.281 148.395 177.746 148.395C178.029 148.395 178.392 148.123 178.834 147.579C179.276 147.024 179.724 146.23 180.177 145.199C180.268 144.972 180.421 144.814 180.636 144.723C180.863 144.632 181.084 144.627 181.299 144.706C181.526 144.797 181.69 144.955 181.792 145.182C181.894 145.397 181.9 145.613 181.809 145.828C181.242 147.199 180.568 148.27 179.786 149.041C179.015 149.8 178.29 150.18 177.61 150.18ZM195.63 148.905C196.469 148.905 197.041 148.752 197.347 148.446C197.664 148.129 197.829 147.545 197.84 146.695C197.84 146.604 197.789 146.536 197.687 146.491C197.03 146.208 196.401 146.066 195.8 146.066C195.052 146.066 194.508 146.174 194.168 146.389C193.839 146.604 193.675 146.933 193.675 147.375C193.675 147.862 193.845 148.242 194.185 148.514C194.525 148.775 195.007 148.905 195.63 148.905ZM191.72 139.215C191.505 139.215 191.323 139.141 191.176 138.994C191.029 138.847 190.955 138.665 190.955 138.45C190.955 138.235 191.029 138.053 191.176 137.906C191.323 137.759 191.505 137.685 191.72 137.685H197.687C197.789 137.685 197.84 137.634 197.84 137.532V136.75C197.84 136.512 197.919 136.314 198.078 136.155C198.248 135.985 198.452 135.9 198.69 135.9C198.928 135.9 199.126 135.985 199.285 136.155C199.455 136.314 199.54 136.512 199.54 136.75V137.532C199.54 137.634 199.591 137.685 199.693 137.685H203.28C203.495 137.685 203.677 137.759 203.824 137.906C203.971 138.053 204.045 138.235 204.045 138.45C204.045 138.665 203.971 138.847 203.824 138.994C203.677 139.141 203.495 139.215 203.28 139.215H199.693C199.591 139.215 199.54 139.266 199.54 139.368V140.932C199.54 141.034 199.591 141.085 199.693 141.085H202.685C202.9 141.085 203.082 141.159 203.229 141.306C203.376 141.453 203.45 141.635 203.45 141.85C203.45 142.065 203.376 142.247 203.229 142.394C203.082 142.541 202.9 142.615 202.685 142.615H199.693C199.591 142.615 199.54 142.666 199.54 142.768V145.556C199.54 145.658 199.58 145.732 199.659 145.777C200.758 146.412 201.897 147.228 203.076 148.225C203.246 148.372 203.337 148.559 203.348 148.786C203.359 149.001 203.291 149.194 203.144 149.364C202.997 149.534 202.81 149.625 202.583 149.636C202.356 149.647 202.158 149.579 201.988 149.432C201.127 148.695 200.339 148.078 199.625 147.579C199.546 147.522 199.495 147.539 199.472 147.63C199.336 148.627 198.962 149.341 198.35 149.772C197.749 150.214 196.843 150.435 195.63 150.435C194.474 150.435 193.562 150.163 192.893 149.619C192.224 149.075 191.89 148.327 191.89 147.375C191.89 146.548 192.185 145.868 192.774 145.335C193.375 144.802 194.327 144.536 195.63 144.536C196.31 144.536 196.996 144.649 197.687 144.876C197.789 144.899 197.84 144.87 197.84 144.791V142.768C197.84 142.666 197.789 142.615 197.687 142.615H192.315C192.1 142.615 191.918 142.541 191.771 142.394C191.624 142.247 191.55 142.065 191.55 141.85C191.55 141.635 191.624 141.453 191.771 141.306C191.918 141.159 192.1 141.085 192.315 141.085H197.687C197.789 141.085 197.84 141.034 197.84 140.932V139.368C197.84 139.266 197.789 139.215 197.687 139.215H191.72ZM215.18 144.57C215.543 144.23 215.724 143.805 215.724 143.295C215.724 142.785 215.543 142.36 215.18 142.02C214.817 141.68 214.353 141.51 213.786 141.51C213.208 141.51 212.732 141.68 212.358 142.02C211.995 142.36 211.814 142.785 211.814 143.295C211.814 143.805 211.995 144.23 212.358 144.57C212.732 144.91 213.208 145.08 213.786 145.08C214.353 145.08 214.817 144.91 215.18 144.57ZM207.904 139.13C207.711 139.13 207.541 139.062 207.394 138.926C207.258 138.779 207.19 138.609 207.19 138.416C207.19 138.223 207.258 138.053 207.394 137.906C207.541 137.759 207.711 137.685 207.904 137.685H215.367C215.469 137.685 215.52 137.634 215.52 137.532V136.495C215.52 136.268 215.605 136.07 215.775 135.9C215.945 135.73 216.143 135.645 216.37 135.645C216.608 135.645 216.806 135.73 216.965 135.9C217.135 136.059 217.22 136.257 217.22 136.495V137.549C217.22 137.64 217.271 137.685 217.373 137.685H221.096C221.289 137.685 221.453 137.759 221.589 137.906C221.736 138.053 221.81 138.223 221.81 138.416C221.81 138.609 221.736 138.779 221.589 138.926C221.453 139.062 221.289 139.13 221.096 139.13H217.373C217.271 139.13 217.22 139.181 217.22 139.283V142.53C217.22 142.621 217.237 142.711 217.271 142.802C217.486 143.425 217.594 144.128 217.594 144.91C217.594 146.508 217.18 147.743 216.353 148.616C215.537 149.489 214.2 150.084 212.341 150.401C212.114 150.435 211.91 150.384 211.729 150.248C211.548 150.112 211.44 149.936 211.406 149.721C211.372 149.506 211.417 149.307 211.542 149.126C211.678 148.945 211.859 148.837 212.086 148.803C213.401 148.576 214.347 148.231 214.925 147.766C215.514 147.301 215.86 146.65 215.962 145.811C215.962 145.8 215.962 145.794 215.962 145.794L215.979 145.76C215.979 145.737 215.973 145.726 215.962 145.726L215.928 145.743C215.373 146.321 214.557 146.61 213.48 146.61C212.494 146.61 211.678 146.298 211.032 145.675C210.397 145.04 210.08 144.247 210.08 143.295C210.08 142.343 210.397 141.555 211.032 140.932C211.678 140.297 212.494 139.98 213.48 139.98C214.217 139.98 214.874 140.15 215.452 140.49H215.503C215.514 140.49 215.52 140.484 215.52 140.473V139.283C215.52 139.181 215.469 139.13 215.367 139.13H207.904Z" fill="#888888"/>
<defs>
<filter id="filter0_d_4048_124" x="89.9729" y="20.4868" width="57.1753" height="48.4495" filterUnits="userSpaceOnUse" color-interpolation-filters="sRGB">
<feFlood flood-opacity="0" result="BackgroundImageFix"/>
<feColorMatrix in="SourceAlpha" type="matrix" values="0 0 0 0 0 0 0 0 0 0 0 0 0 0 0 0 0 0 127 0" result="hardAlpha"/>
<feOffset dx="5" dy="5"/>
<feGaussianBlur stdDeviation="5"/>
<feColorMatrix type="matrix" values="0 0 0 0 0.164706 0 0 0 0 0.239216 0 0 0 0 0.184314 0 0 0 0.75 0"/>
<feBlend mode="normal" in2="BackgroundImageFix" result="effect1_dropShadow_4048_124"/>
<feBlend mode="normal" in="SourceGraphic" in2="effect1_dropShadow_4048_124" result="shape"/>
</filter>
<linearGradient id="paint0_linear_4048_124" x1="92.3187" y1="8.323" x2="134.459" y2="55.4328" gradientUnits="userSpaceOnUse">
<stop stop-color="#94D0C4"/>
<stop offset="0.5" stop-color="#00AEA4"/>
<stop offset="1" stop-color="#00997F"/>
</linearGradient>
<linearGradient id="paint1_linear_4048_124" x1="92.3187" y1="8.323" x2="134.459" y2="55.4328" gradientUnits="userSpaceOnUse">
<stop stop-color="#94D0C4"/>
<stop offset="0.5" stop-color="#00AEA4"/>
<stop offset="1" stop-color="#00997F"/>
</linearGradient>
<linearGradient id="paint2_linear_4048_124" x1="82.4919" y1="39.3014" x2="142.505" y2="39.3014" gradientUnits="userSpaceOnUse">
<stop stop-color="#94D0C4"/>
<stop offset="0.5" stop-color="#00AEA4"/>
<stop offset="1" stop-color="#00997F"/>
</linearGradient>
<linearGradient id="paint3_linear_4048_124" x1="103.733" y1="35.5815" x2="132.787" y2="47.5719" gradientUnits="userSpaceOnUse">
<stop stop-color="white" stop-opacity="0.2"/>
<stop offset="0.5" stop-color="#00AEA4" stop-opacity="0.4"/>
<stop offset="1" stop-color="#006C7F"/>
</linearGradient>
<clipPath id="clip0_4048_124">
<rect width="66" height="77" fill="white" transform="translate(79.5 0.5)"/>
</clipPath>
<clipPath id="clip1_4048_124">
<rect width="80" height="37" fill="white" transform="translate(72.5 85.5)"/>
</clipPath>
</defs>
</svg>
