<svg width="80" height="27" viewBox="0 0 80 27" fill="none" xmlns="http://www.w3.org/2000/svg">
<g clip-path="url(#clip0_4048_175)">
<path d="M8.23473 19.539C7.15286 19.539 6.11929 19.3269 5.12437 18.9027C4.13427 18.4785 3.25525 17.8663 2.48732 17.0661C1.72905 16.2659 1.12533 15.2922 0.676165 14.1353C0.226998 12.9833 0 11.6818 0 10.2356C0 8.78954 0.222169 7.47358 0.661676 6.29741C1.10601 5.11642 1.71456 4.10414 2.50181 3.25094C3.27457 2.40737 4.19222 1.75662 5.24511 1.29869C6.30283 0.840753 7.42816 0.609375 8.63077 0.609375C9.52427 0.609375 10.3357 0.720243 11.0553 0.94198C11.7798 1.16372 12.4656 1.47222 13.1224 1.87231L13.644 1.00465H14.668L14.7839 7.45912H13.7358C13.6006 6.82765 13.3977 6.14798 13.1224 5.41046C12.852 4.67294 12.5332 4.05112 12.1661 3.54016C11.7556 2.96171 11.2726 2.5086 10.7124 2.18081C10.1521 1.85303 9.50978 1.68914 8.78532 1.68914C7.95943 1.68914 7.1915 1.87231 6.48153 2.23866C5.77155 2.60501 5.15334 3.14489 4.63656 3.8583C4.14393 4.54761 3.75755 5.42492 3.47742 6.49022C3.1973 7.55552 3.05723 8.74133 3.05723 10.0525C3.05723 11.2094 3.20213 12.2698 3.49674 13.2387C3.79135 14.2028 4.21154 15.056 4.75248 15.7839C5.29824 16.5069 5.94059 17.0709 6.68921 17.4807C7.43299 17.8904 8.2637 18.0928 9.18619 18.0928C9.87684 18.0928 10.5095 17.982 11.0891 17.7699C11.6687 17.553 12.171 17.2637 12.596 16.907C13.021 16.531 13.3977 16.1069 13.7213 15.6296C14.0449 15.1524 14.3106 14.6318 14.5134 14.0727L15.4697 14.5306C14.7356 16.3238 13.7648 17.606 12.5574 18.3772C11.3499 19.1485 9.91065 19.5341 8.23956 19.5341L8.23473 19.539Z" fill="#888888"/>
<path d="M24.9794 11.0598C24.9794 11.3683 24.7283 11.619 24.4192 11.619H17.9232C17.6141 11.619 17.3629 11.3683 17.3629 11.0598V10.168C17.3629 9.85955 17.6141 9.60889 17.9232 9.60889H24.4192C24.7283 9.60889 24.9794 9.85955 24.9794 10.168V11.0598Z" fill="#888888"/>
<path d="M44.5206 19.1051H39.6377C38.5559 17.4132 37.5803 15.9526 36.7061 14.7186C35.8319 13.4846 34.8853 12.212 33.8662 10.9057H32.0067V16.6467C32.0067 16.9456 32.055 17.2059 32.1468 17.4324C32.2434 17.659 32.4414 17.8325 32.7457 17.9482C32.9002 18.0061 33.1659 18.0639 33.5523 18.1121C33.9338 18.1651 34.2574 18.1941 34.523 18.2037V19.1099H26.8534V18.2037C27.0562 18.1844 27.3557 18.1555 27.7421 18.1121C28.1284 18.0687 28.3989 18.0157 28.5535 17.9482C28.8094 17.8374 28.993 17.6783 29.1089 17.4614C29.2248 17.2493 29.2828 16.9745 29.2828 16.6467V3.55461C29.2828 3.25575 29.2393 2.99545 29.1572 2.76407C29.0702 2.53269 28.8722 2.35916 28.5583 2.24347C28.3458 2.16635 28.0705 2.09886 27.7276 2.03138C27.3847 1.96871 27.0949 1.92533 26.8582 1.91087V1.00464H35.2282C35.9961 1.00464 36.7157 1.08176 37.3871 1.24084C38.0584 1.39991 38.6718 1.65057 39.2127 2.00245C39.7392 2.3447 40.1642 2.78817 40.4781 3.33288C40.7921 3.8824 40.9514 4.54279 40.9514 5.31887C40.9514 6.01782 40.8452 6.63483 40.6327 7.16989C40.4202 7.70495 40.1062 8.1677 39.686 8.56297C39.3045 8.92932 38.8408 9.24747 38.3047 9.51259C37.7686 9.77771 37.1746 10.0091 36.5274 10.1923C37.4209 11.3732 38.1647 12.3711 38.7587 13.1761C39.3528 13.9859 40.0773 14.9644 40.9369 16.1213C41.3137 16.6323 41.6518 17.0083 41.9512 17.2493C42.2555 17.4903 42.5549 17.6879 42.8544 17.8422C43.0765 17.953 43.3518 18.0398 43.6851 18.0977C44.0183 18.1555 44.2936 18.1892 44.5158 18.1989V19.1051H44.5206ZM37.7976 5.61291C37.7976 4.51869 37.4837 3.65102 36.851 3.00991C36.2183 2.3688 35.3296 2.05066 34.1801 2.05066H32.0067V9.80663H33.6827C34.8611 9.80663 35.8367 9.43064 36.624 8.67866C37.4064 7.92668 37.7976 6.90477 37.7976 5.61773V5.61291Z" fill="#888888"/>
<path d="M56.8269 18.8737C56.426 19.0183 56.0735 19.134 55.774 19.2255C55.4697 19.3171 55.1317 19.3605 54.7453 19.3605C54.0836 19.3605 53.5523 19.2063 53.1563 18.8929C52.7603 18.5844 52.5043 18.1313 52.3932 17.5336H52.3159C51.7605 18.1458 51.1664 18.6134 50.5337 18.9363C49.901 19.2593 49.1331 19.4184 48.2396 19.4184C47.293 19.4184 46.5154 19.1291 45.9068 18.5507C45.2983 17.9723 44.994 17.2155 44.994 16.2803C44.994 15.7983 45.0616 15.3644 45.1969 14.9788C45.3321 14.598 45.5398 14.2509 45.8102 13.9472C46.0228 13.6918 46.3029 13.4652 46.6506 13.2628C47.0032 13.0651 47.3268 12.9012 47.6359 12.7855C48.0174 12.6409 48.795 12.371 49.9687 11.9805C51.1375 11.5901 51.9295 11.2816 52.3401 11.0598V9.79691C52.3401 9.68604 52.3159 9.47395 52.2725 9.16062C52.2242 8.8473 52.1276 8.54843 51.973 8.26885C51.804 7.95553 51.5625 7.68077 51.2485 7.44457C50.9394 7.20837 50.4951 7.09268 49.9252 7.09268C49.534 7.09268 49.1669 7.16017 48.8337 7.29032C48.4956 7.42047 48.2589 7.56026 48.1237 7.70487C48.1237 7.87358 48.1623 8.12424 48.2444 8.45685C48.3265 8.78945 48.3652 9.09314 48.3652 9.37754C48.3652 9.6764 48.2299 9.94634 47.9643 10.1922C47.6987 10.438 47.322 10.5633 46.8438 10.5633C46.4188 10.5633 46.1049 10.4139 45.9068 10.1102C45.7088 9.80655 45.6074 9.46913 45.6074 9.09796C45.6074 8.72679 45.7475 8.33152 46.0228 7.97481C46.298 7.6181 46.6603 7.29996 47.1046 7.02038C47.4862 6.78418 47.9547 6.58173 48.4956 6.41301C49.0413 6.24912 49.5726 6.16235 50.0942 6.16235C50.809 6.16235 51.4369 6.21056 51.9682 6.30696C52.4994 6.40337 52.9824 6.61547 53.4171 6.93843C53.8518 7.25176 54.1802 7.68077 54.4072 8.22065C54.6342 8.76053 54.7453 9.45466 54.7453 10.3079C54.7453 11.5226 54.7308 12.6024 54.7066 13.5423C54.6825 14.4823 54.668 15.509 54.668 16.6225C54.668 16.9552 54.726 17.2155 54.8419 17.4131C54.9578 17.6107 55.1317 17.7746 55.3732 17.9096C55.4987 17.9867 55.7016 18.0301 55.9817 18.0349C56.257 18.0446 56.542 18.0494 56.8317 18.0494V18.864L56.8269 18.8737ZM52.3642 12.1396C51.6398 12.3517 51.0071 12.5638 50.4613 12.7663C49.9155 12.9687 49.4084 13.2242 48.9399 13.5327C48.5149 13.8219 48.1768 14.1642 47.9305 14.5594C47.6842 14.9547 47.5586 15.4271 47.5586 15.9718C47.5586 16.6804 47.747 17.201 48.114 17.5336C48.4859 17.8662 48.9544 18.0349 49.5243 18.0349C50.128 18.0349 50.6593 17.8903 51.123 17.5914C51.5818 17.2974 51.9682 16.9503 52.2869 16.5502L52.3642 12.1396Z" fill="#888888"/>
<path d="M67.7324 8.14354C67.7324 8.57737 67.6261 8.963 67.4136 9.30043C67.2011 9.63785 66.8727 9.80657 66.4284 9.80657C65.9502 9.80657 65.588 9.68124 65.3368 9.4354C65.0857 9.18956 64.9601 8.9148 64.9601 8.62076C64.9601 8.43276 64.9746 8.26405 65.0036 8.1098C65.0326 7.95555 65.0615 7.80129 65.0857 7.65186C64.6848 7.65186 64.2163 7.81094 63.6802 8.1339C63.1441 8.45686 62.6901 8.9148 62.3134 9.51252V16.8347C62.3134 17.1335 62.3714 17.3745 62.4873 17.5625C62.6032 17.7505 62.7819 17.8903 63.0282 17.9819C63.2407 18.0687 63.516 18.1313 63.8541 18.1747C64.1922 18.2181 64.482 18.247 64.7283 18.2615V19.1051H58.0826V18.2615C58.2806 18.2422 58.4834 18.2277 58.6911 18.2085C58.8988 18.1892 59.0823 18.1603 59.2369 18.1072C59.4735 18.0301 59.6522 17.9 59.7681 17.7071C59.8841 17.5143 59.942 17.2685 59.942 16.96V9.1992C59.942 8.93408 59.8792 8.6786 59.7585 8.42312C59.6329 8.16764 59.4639 7.96519 59.2417 7.81094C59.0823 7.70971 58.8891 7.63258 58.667 7.5892C58.4448 7.54099 58.2081 7.51207 57.9521 7.49279V6.64923L62.1444 6.36965L62.3231 6.548V8.32189H62.3859C62.9123 7.63258 63.5015 7.11198 64.1487 6.75528C64.7959 6.39857 65.39 6.22021 65.9261 6.22021C66.4622 6.22021 66.9017 6.39375 67.2349 6.74563C67.573 7.0927 67.7372 7.56028 67.7372 8.14836L67.7324 8.14354Z" fill="#888888"/>
<path d="M80 16.1454C79.4736 17.148 78.7636 17.9482 77.8798 18.5459C76.9911 19.1388 75.972 19.4377 74.8226 19.4377C73.8083 19.4377 72.9196 19.2593 72.1565 18.9026C71.3934 18.5459 70.7656 18.0591 70.2729 17.4469C69.7803 16.8347 69.4084 16.1213 69.1669 15.3018C68.9254 14.4872 68.8047 13.6243 68.8047 12.7133C68.8047 11.8987 68.9351 11.0937 69.1959 10.3079C69.4567 9.52221 69.8383 8.81362 70.3405 8.18215C70.8283 7.5796 71.4272 7.09275 72.1469 6.72158C72.8665 6.35041 73.6731 6.16724 74.5714 6.16724C75.4697 6.16724 76.2811 6.31185 76.938 6.60107C77.5948 6.89029 78.1261 7.28556 78.5366 7.78688C78.9278 8.2641 79.2176 8.82326 79.4108 9.46919C79.604 10.1151 79.7006 10.8189 79.7006 11.5757V12.4193H71.3548C71.3548 13.2435 71.4321 13.9955 71.5914 14.6704C71.7508 15.3452 71.9971 15.9381 72.3401 16.4491C72.6733 16.9456 73.108 17.3312 73.6441 17.6204C74.1802 17.9048 74.8177 18.0494 75.5615 18.0494C76.3053 18.0494 76.9718 17.8711 77.5224 17.5192C78.073 17.1625 78.6043 16.5262 79.1114 15.6007L80.0049 16.1502L80 16.1454ZM77.1746 11.3491C77.1746 10.8719 77.136 10.3658 77.0539 9.82107C76.9718 9.27637 76.8414 8.82326 76.6627 8.46173C76.4647 8.07128 76.199 7.75314 75.8561 7.5073C75.5132 7.26146 75.0737 7.13613 74.5376 7.13613C73.6441 7.13613 72.9003 7.5073 72.3063 8.24963C71.7122 8.99197 71.3934 10.0235 71.3403 11.3443H77.1698L77.1746 11.3491Z" fill="#888888"/>
<path d="M55.1074 0.975678H53.3832C53.1948 1.49628 52.8809 1.96385 52.4366 2.37841L52.084 2.0699C52.3641 1.79996 52.5959 1.49146 52.7698 1.13957C52.9437 0.787684 53.0548 0.421336 53.0982 0.0405273L53.5812 0.0742699C53.5716 0.223701 53.5474 0.373133 53.5088 0.517744H55.6387V0.614151C55.6387 1.69391 55.3875 2.49409 54.8852 3.01469C54.3829 3.53529 53.5764 3.8438 52.4752 3.9402L52.4027 3.48709C53.3301 3.40032 54.0014 3.16412 54.4168 2.78332C54.8321 2.40251 55.0639 1.79996 55.1074 0.970858V0.975678Z" fill="#888888"/>
<path d="M58.1888 0.218994H58.7249V3.45346C59.3673 3.40044 59.8841 3.2269 60.2801 2.92322C60.6762 2.61954 60.9804 2.16642 61.1978 1.56388L61.6614 1.74705C61.3861 2.50867 60.9756 3.06301 60.425 3.41972C59.8744 3.7716 59.1596 3.94996 58.2854 3.94996H58.1888V0.218994Z" fill="#888888"/>
<path d="M63.5789 0.797296V0.358643H67.3847V0.797296C67.2929 1.12026 67.1336 1.41912 66.9017 1.6987C66.6699 1.97347 66.3994 2.20002 66.0807 2.36874L65.8102 1.96864C66.3415 1.67942 66.6892 1.29379 66.8486 0.802116H63.5789V0.797296ZM64.8974 1.21185H65.3948C65.3948 1.76137 65.3514 2.21448 65.2644 2.56155C65.1775 2.91344 65.0374 3.19784 64.8491 3.41475C64.6607 3.63167 64.3999 3.81485 64.0667 3.96428L63.83 3.54973C64.1005 3.42922 64.313 3.27978 64.4627 3.09661C64.6124 2.91344 64.7235 2.67242 64.7911 2.37838C64.8587 2.07951 64.8926 1.69388 64.8926 1.21185H64.8974Z" fill="#888888"/>
<path d="M13.1901 24.6004C13.1901 23.4628 13.8855 22.7783 14.7694 22.7783C15.2089 22.7783 15.5518 22.9856 15.7643 23.217L15.4649 23.5689C15.2862 23.3857 15.064 23.2555 14.7791 23.2555C14.1753 23.2555 13.7551 23.7569 13.7551 24.5811C13.7551 25.4054 14.1464 25.9212 14.7646 25.9212C15.0833 25.9212 15.3296 25.7766 15.5373 25.55L15.8319 25.8971C15.5518 26.2201 15.1944 26.3984 14.7452 26.3984C13.8662 26.3984 13.1901 25.7428 13.1901 24.6004Z" fill="#888888"/>
<path d="M16.6964 25.039C16.6964 24.1665 17.2808 23.6604 17.928 23.6604C18.5752 23.6604 19.1596 24.1617 19.1596 25.039C19.1596 25.9163 18.5752 26.4032 17.928 26.4032C17.2808 26.4032 16.6964 25.9019 16.6964 25.039ZM18.5993 25.039C18.5993 24.4847 18.3434 24.1135 17.928 24.1135C17.5126 24.1135 17.2615 24.4847 17.2615 25.039C17.2615 25.5934 17.5175 25.9549 17.928 25.9549C18.3385 25.9549 18.5993 25.5885 18.5993 25.039Z" fill="#888888"/>
<path d="M20.2802 23.7279H20.7293L20.7728 24.0942H20.7873C21.0094 23.858 21.2702 23.6604 21.5938 23.6604C21.9851 23.6604 22.2024 23.8388 22.3183 24.1376C22.5743 23.8629 22.8399 23.6604 23.1683 23.6604C23.7141 23.6604 23.9749 24.0316 23.9749 24.6968V26.3405H23.4291V24.7643C23.4291 24.3111 23.2891 24.1328 22.9896 24.1328C22.8109 24.1328 22.6178 24.2533 22.4004 24.4895V26.3405H21.8546V24.7643C21.8546 24.3111 21.7146 24.1328 21.4151 24.1328C21.2413 24.1328 21.0433 24.2533 20.8259 24.4895V26.3405H20.285V23.7327L20.2802 23.7279Z" fill="#888888"/>
<path d="M25.7329 26.0658H25.7184L25.6653 26.3357H25.2355V22.5518H25.7764V23.5544L25.7619 24.0027C25.9841 23.8099 26.2642 23.6604 26.5395 23.6604C27.2012 23.6604 27.5779 24.1859 27.5779 24.9909C27.5779 25.8875 27.0418 26.3984 26.4526 26.3984C26.2159 26.3984 25.9551 26.2779 25.7281 26.0658H25.7329ZM27.0128 25.0005C27.0128 24.4558 26.8341 24.1184 26.3994 24.1184C26.1966 24.1184 25.9937 24.2244 25.7764 24.4365V25.7139C25.9744 25.8875 26.1869 25.9501 26.3463 25.9501C26.7279 25.9501 27.0128 25.6127 27.0128 25.0005Z" fill="#888888"/>
<path d="M28.4811 25.6464C28.4811 25.0872 28.9592 24.798 30.0459 24.6775C30.0459 24.3738 29.93 24.1087 29.5485 24.1087C29.2732 24.1087 29.0172 24.234 28.7902 24.3738L28.5873 24.0026C28.8578 23.8339 29.2249 23.6604 29.645 23.6604C30.2971 23.6604 30.5965 24.075 30.5965 24.7643V26.3357H30.1473L30.099 26.0368H30.0846C29.8479 26.2393 29.5678 26.3984 29.2538 26.3984C28.7998 26.3984 28.4811 26.1043 28.4811 25.6416V25.6464ZM30.0459 25.6657V25.0246C29.2683 25.121 29.0075 25.3138 29.0075 25.6078C29.0075 25.8633 29.1862 25.9694 29.4181 25.9694C29.6499 25.9694 29.8334 25.8585 30.0459 25.6657Z" fill="#888888"/>
<path d="M31.8523 25.4825V24.1617H31.4707V23.752L31.8764 23.7231L31.9392 23H32.398V23.7231H33.079V24.1617H32.398V25.4873C32.398 25.8006 32.5091 25.9597 32.7796 25.9597C32.8713 25.9597 32.9824 25.9308 33.0597 25.897L33.1611 26.302C33.0162 26.3502 32.8375 26.3984 32.6492 26.3984C32.0599 26.3984 31.8571 26.032 31.8571 25.4825H31.8523Z" fill="#888888"/>
<path d="M35.6726 23.7279H36.1169L36.1604 24.1955H36.1749C36.3584 23.858 36.6337 23.6604 36.9187 23.6604C37.0443 23.6604 37.1312 23.6797 37.2133 23.7182L37.1119 24.1906C37.0201 24.1617 36.9525 24.1473 36.8511 24.1473C36.6386 24.1473 36.3778 24.2967 36.2135 24.7064V26.3357H35.6726V23.7279Z" fill="#888888"/>
<path d="M37.8073 25.6464C37.8073 25.0872 38.2806 24.798 39.3721 24.6775C39.3721 24.3738 39.2562 24.1087 38.8746 24.1087C38.5993 24.1087 38.3434 24.234 38.1212 24.3738L37.9183 24.0026C38.1888 23.8339 38.5559 23.6604 38.9712 23.6604C39.6232 23.6604 39.9227 24.075 39.9227 24.7643V26.3357H39.4735L39.4252 26.0368H39.4107C39.1741 26.2393 38.8939 26.3984 38.58 26.3984C38.126 26.3984 37.8073 26.1043 37.8073 25.6416V25.6464ZM39.3721 25.6657V25.0246C38.5993 25.121 38.3337 25.3138 38.3337 25.6078C38.3337 25.8633 38.5124 25.9694 38.7442 25.9694C38.9761 25.9694 39.1596 25.8585 39.3721 25.6657Z" fill="#888888"/>
<path d="M41.1688 23.7279H41.6132L41.6566 24.1955H41.6711C41.8546 23.858 42.1348 23.6604 42.4149 23.6604C42.5453 23.6604 42.6274 23.6797 42.7095 23.7182L42.6081 24.1906C42.5163 24.1617 42.4487 24.1473 42.3473 24.1473C42.1348 24.1473 41.8788 24.2967 41.7098 24.7064V26.3357H41.1688V23.7279Z" fill="#888888"/>
<path d="M43.3519 25.039C43.3519 24.1906 43.9314 23.6604 44.5448 23.6604C45.2403 23.6604 45.6122 24.1617 45.6122 24.8992C45.6122 25.0053 45.6025 25.1113 45.5881 25.174H43.888C43.9314 25.6753 44.2454 25.9694 44.6945 25.9694C44.9264 25.9694 45.1292 25.8971 45.3176 25.7765L45.5059 26.1236C45.2645 26.2827 44.965 26.3984 44.6221 26.3984C43.9121 26.3984 43.347 25.897 43.347 25.0342L43.3519 25.039ZM45.1437 24.8028C45.1437 24.3497 44.9409 24.0894 44.5593 24.0894C44.2309 24.0894 43.9411 24.3401 43.888 24.8028H45.1437Z" fill="#888888"/>
<path d="M48.0754 25.0391C48.0754 24.1907 48.6115 23.6604 49.1959 23.6604C49.4953 23.6604 49.6837 23.7761 49.901 23.9545L49.8769 23.5207V22.5518H50.4226V26.3357H49.9783L49.93 26.0417H49.9155C49.7223 26.2393 49.447 26.3984 49.1524 26.3984C48.4956 26.3984 48.0706 25.8971 48.0706 25.0342L48.0754 25.0391ZM49.8769 25.632V24.3546C49.6837 24.181 49.4953 24.1184 49.3021 24.1184C48.9351 24.1184 48.6405 24.4654 48.6405 25.0294C48.6405 25.6223 48.8723 25.9501 49.2828 25.9501C49.5002 25.9501 49.6885 25.8489 49.8769 25.632Z" fill="#888888"/>
<path d="M51.6494 22.9182C51.6494 22.7254 51.7943 22.5952 51.9972 22.5952C52.2 22.5952 52.3497 22.7254 52.3497 22.9182C52.3497 23.111 52.1952 23.2411 51.9972 23.2411C51.7991 23.2411 51.6494 23.111 51.6494 22.9182ZM51.7219 23.728H52.2628V26.3358H51.7219V23.728Z" fill="#888888"/>
<path d="M53.2867 26.0368L53.5427 25.6849C53.7745 25.8681 54.0063 25.9838 54.2864 25.9838C54.6004 25.9838 54.7501 25.8295 54.7501 25.6319C54.7501 25.3957 54.4555 25.2896 54.1705 25.1788C53.8228 25.0486 53.4219 24.8606 53.4219 24.422C53.4219 23.9833 53.7745 23.6555 54.3492 23.6555C54.7018 23.6555 54.9868 23.8001 55.1993 23.964L54.9433 24.3014C54.7646 24.1665 54.5762 24.0749 54.3589 24.0749C54.0739 24.0749 53.9387 24.2195 53.9387 24.3979C53.9387 24.6196 54.2092 24.7064 54.4941 24.8124C54.8612 24.9522 55.2621 25.1113 55.2621 25.6078C55.2621 26.0464 54.9143 26.3983 54.2671 26.3983C53.9049 26.3983 53.533 26.2441 53.2819 26.0368H53.2867Z" fill="#888888"/>
<path d="M56.1411 25.039C56.1411 24.1906 56.7206 23.6604 57.334 23.6604C58.0295 23.6604 58.4014 24.1617 58.4014 24.8992C58.4014 25.0053 58.3917 25.1113 58.3772 25.174H56.6772C56.7206 25.6753 57.0346 25.9694 57.4837 25.9694C57.7156 25.9694 57.9184 25.8971 58.1068 25.7765L58.2951 26.1236C58.0536 26.2827 57.7542 26.3984 57.4113 26.3984C56.7013 26.3984 56.1362 25.897 56.1362 25.0342L56.1411 25.039ZM57.9281 24.8028C57.9281 24.3497 57.7252 24.0894 57.3437 24.0894C57.0152 24.0894 56.7255 24.3401 56.6723 24.8028H57.9281Z" fill="#888888"/>
<path d="M59.2659 25.6464C59.2659 25.0872 59.7393 24.798 60.8308 24.6775C60.8308 24.3738 60.7149 24.1087 60.3333 24.1087C60.058 24.1087 59.802 24.234 59.575 24.3738L59.3722 24.0026C59.6427 23.8339 60.0097 23.6604 60.4251 23.6604C61.0771 23.6604 61.3765 24.075 61.3765 24.7643V26.3357H60.9274L60.8791 26.0368H60.8646C60.6279 26.2393 60.3478 26.3984 60.0339 26.3984C59.5799 26.3984 59.2611 26.1043 59.2611 25.6416L59.2659 25.6464ZM60.8308 25.6657V25.0246C60.0532 25.121 59.7924 25.3138 59.7924 25.6078C59.7924 25.8633 59.9663 25.9694 60.2029 25.9694C60.4396 25.9694 60.6183 25.8585 60.8308 25.6657Z" fill="#888888"/>
<path d="M62.3521 26.0368L62.608 25.6849C62.8399 25.8681 63.0717 25.9838 63.3518 25.9838C63.6657 25.9838 63.8155 25.8295 63.8155 25.6319C63.8155 25.3957 63.5208 25.2896 63.2359 25.1788C62.8881 25.0486 62.4921 24.8606 62.4921 24.422C62.4921 23.9833 62.8447 23.6555 63.4194 23.6555C63.772 23.6555 64.057 23.8001 64.2695 23.964L64.0135 24.3014C63.8348 24.1665 63.6464 24.0749 63.4291 24.0749C63.1441 24.0749 63.0089 24.2195 63.0089 24.3979C63.0089 24.6196 63.2794 24.7064 63.5643 24.8124C63.9314 24.9522 64.3322 25.1113 64.3322 25.6078C64.3322 26.0464 63.9845 26.3983 63.3373 26.3983C62.9751 26.3983 62.6032 26.2441 62.3521 26.0368Z" fill="#888888"/>
<path d="M65.2016 25.039C65.2016 24.1906 65.7812 23.6604 66.3946 23.6604C67.09 23.6604 67.4619 24.1617 67.4619 24.8992C67.4619 25.0053 67.4523 25.1113 67.4378 25.174H65.7377C65.7812 25.6753 66.0951 25.9694 66.5443 25.9694C66.7761 25.9694 66.979 25.8971 67.1673 25.7765L67.3557 26.1236C67.1142 26.2827 66.8147 26.3984 66.4718 26.3984C65.7619 26.3984 65.1968 25.897 65.1968 25.0342L65.2016 25.039ZM66.9886 24.8028C66.9886 24.3497 66.7858 24.0894 66.4042 24.0894C66.0758 24.0894 65.786 24.3401 65.7329 24.8028H66.9886Z" fill="#888888"/>
</g>
<defs>
<clipPath id="clip0_4048_175">
<rect width="80" height="26.3529" fill="white" transform="translate(0 0.0454102)"/>
</clipPath>
</defs>
</svg>
